<svg xmlns="http://www.w3.org/2000/svg" width="98.34" height="32.63" viewBox="0 0 98.34 32.63"><defs><style>.a{fill:#fff;}</style></defs><title>idea-logo-2020-new-padding</title><rect class="a" x="9.19" y="3.05" width="7.44" height="7.44"/><path class="a" d="M16.51,12H9.72a.55.55,0,0,0-.55.56v17h7.34ZM76,13.45l-1.38,4.09h2.77S76.1,13.85,76,13.45M72.67,4.18,73,3.5c.27-.45.58-.46,1.27-.45h3.13c1,0,1.31-.07,1.65.45l4,10.31v0l6.12,15.73H81.78l-2.28-6H72.41l-2.27,6H62.75ZM29.8,10.39H27.54V22.31h2.38a6,6,0,0,0,0-11.92Zm0-7.23h.12a13.23,13.23,0,0,1,2.23,26.37,13.84,13.84,0,0,1-2.23,0H20.3V3.71a.56.56,0,0,1,.52-.59h9ZM59.62,23.44h.89a.57.57,0,0,1,.55.55v5.6H45.7V3.71a.57.57,0,0,1,.53-.59H62.86a.57.57,0,0,1,.55.55l-2.35,5.6H53v3.94h7.44a.54.54,0,0,1,.54.54v5.59H53v4.1Z"/></svg>