<?xml version="1.0" encoding="utf-8"?>
<!-- Generator: Adobe Illustrator 16.0.0, SVG Export Plug-In . SVG Version: 6.00 Build 0)  -->
<!DOCTYPE svg PUBLIC "-//W3C//DTD SVG 1.1//EN" "http://www.w3.org/Graphics/SVG/1.1/DTD/svg11.dtd">
<svg version="1.1" id="Layer_1" xmlns="http://www.w3.org/2000/svg" xmlns:xlink="http://www.w3.org/1999/xlink" x="0px" y="0px"
	 width="154px" height="107px" viewBox="0 0 154 107" enable-background="new 0 0 154 107" xml:space="preserve">
<g>
	<path fill="#483F78" d="M146.98,85.65c-0.22,0-0.42,0.02-0.63,0.06c-1.84,0.31-2.42,1.56-1.44,2.89c0.28,0.41,0.65,0.77,1.07,1.04
		c1.65,1.09,3.7,0.4,4.43-2.11C151.02,85.37,149.96,84.65,146.98,85.65"/>
	<path fill="#483F78" d="M109.53,26.09c0.51-0.95,0.93-1.78,1.3-2.54c0.35,2.36,0.7,4.77,1.15,7.13c-0.65,0.16-1.75,0.5-2.96,0.85
		l-2.95,0.85C107.44,29.98,108.67,27.83,109.53,26.09 M24.3,30.01c7.02,2.2,14.21,3.74,21.5,4.63c-4.66,4.02-9.49,6.76-20.39,10.67
		c-7.03,2.51,7.72,8.64,12.49,6.54c10.51-4.63,18.05-9.52,22.63-14.67c-0.18,1.84-0.08,3.71,0.29,5.51
		c0.85,3.73,4.33,4.67,7.51,2.01c6.12-0.68,13.32-1.9,19.42-2.91c-0.22,1.02,0.43,2.03,1.45,2.26l0.34,0.02l2.11,0.26
		c4.76,0.47,7.47-0.13,8.41-1.73c0.44-0.71,0.84-1.4,1.24-2.08l7.08-3.19c2.15-0.94,4.03-1.77,4.47-1.92
		c0.47,2.14,1.06,4.25,1.76,6.33c0.77,2.21,3.85,3.23,8.4,2.82c3.57-0.35,3.7-1.47,3.02-4.11c-0.69-2.64-1.35-5.6-1.88-8.28
		l5.07-1.14l1.34-0.28c2.89-0.58,2.79-2.15-1.07-2.54c-1.14-0.11-2.29-0.14-3.43-0.08c-0.88,0.05-1.72,0.11-2.62,0.2
		c-1-6.45-1.25-13-0.76-19.51c0.21-3.21-2.14-4.14-10.03-4.09c-0.32,0.02-0.65,0.05-0.96,0.09c-2.76,0.56-2.64,3.55-1.95,9.44
		c-3.58-0.66-4.81-0.66-6.31,1.71c-3.07,4.71-6.85,9.85-10.54,15.52c-0.76,1.17-1.49,2.36-2.24,3.58c-0.54,0.91-1.03,1.74-1.42,2.52
		c-4.69-0.31-9.93-0.22-15.45-0.04c1.42-3.34,2.52-5.6,3.77-8.76c6.69-1.74,20.27-5.2,2.6-7.13c0.91-2.18,1.82-4.42,2.77-6.68
		c3.63-0.47,8.13-1.06,11.79-1.91l0.95-0.23c5.44-1.36,3.59-2.39-0.62-3.06c-6.05-0.8-12.14-1.28-18.24-1.45
		c-2.63-0.3-6.56-1.59-7.85,1.9c-2.72,6.46-5.1,13.06-7.11,19.77c-0.52-0.74-1.22-1.33-2.02-1.73c-3.69-1.55-10.5-2.58-17.74-4.27
		c3.29-1.16,10.19-3.3,15.35-4.68c5.66-1.51-5.38-8.94-8.73-7.75c-6.37,2.33-14.35,4.99-21.34,7.71c-2.94,1.13-5.04,2.59-5.69,4.9
		C20.59,27.95,21.78,29.17,24.3,30.01"/>
	<path fill="#483F78" d="M127.8,60.83c-1.04,0.36-2.2,0.73-3.51,1.11c0.54-2.73,1.13-5.28,1.77-7.66l2.3,0.03
		C138.7,54.58,138.38,57.21,127.8,60.83 M88.85,73.13c1.15-0.15,2.26-0.31,3.38-0.49c-0.02,0.37,0.03,0.74,0.04,1.09
		c0.11,2.54,0.23,4.94,0.35,7.2c-1.27-1.26-2.68-2.35-4.21-3.26c-0.97-0.63-1.95-1.25-2.76-1.73c-0.81-0.48-1.15-0.68-1.52-0.85
		l0.97-1.47 M92.07,68.19l-1.33,0.17l-1.42,0.18l-0.88,0.1c0.23-0.36,0.6-0.87,1.01-1.45c0.89-1.21,1.7-2.48,2.44-3.79
		c0.05,1.07,0.08,2.11,0.12,3.14C92.02,67.09,92.03,67.66,92.07,68.19 M146.61,81.94c0.88-1.11,1.02-2.64,0.37-3.91
		c-0.15-0.38-0.32-0.76-0.51-1.12c-2.29-4.35-4.85-7.92-5.85-11.83c2.85-1.06,5.55-2.49,8.02-4.26c3-2.41,2.71-4.41,0.59-6.04
		c-3.83-2.96-13.61-4.74-20.23-5.63c-2.76-0.35-4.98-0.57-6.07-0.66c-2.71-0.78-5.46-1.41-8.24-1.88c-1.7-0.26-3.07,0.67-3.55,3.42
		c-0.88,4.83-1.72,9.93-2.27,15.3l-2.47,0.52l-3.13,0.61l-1.5,0.28c-0.08-6.1-0.02-11.85,0.12-17.16c0.03-0.47-0.03-0.94-0.17-1.39
		c-0.58-1.55-2.73-1.06-7.33,1.32c-2,0.9-2.74,1.74-2.87,3.6c-0.2,0.87-0.55,1.7-1.04,2.44c-3.05,4.79-6.35,9.41-9.89,13.85
		c-5.46,0.45-10.9,0.72-16.31,0.88c1.48-5.43,2.87-10.26,4.07-14.49c1.74-0.37,3.45-0.83,5.14-1.38c3.31,1.94,5.69,1.7,7.92,0.11
		c6.82-4.86,5.8-6.74-3.67-6.32c-14.7,0.64-30.18,5.72-43.62,7c-4.09,0.38-5.32,2.64-2.05,5.01c2.46,1.75,14,0.3,18.73-0.78
		c-1.82,6.76-3.08,13.65-3.78,20.61c-1.1-0.4-2.22-0.74-3.37-1.01c-7.13-1.49-14.38-2.39-21.66-2.69
		c5.65-2.48,11.66-5.02,18.19-7.22c4.64-1.55,3.07-2.52-4.49-4.79c-3.06-1.09-6.39-1.11-9.45-0.04c-6.55,2.31-13.1,4.29-19.5,6.91
		c-4.46,1.63-5.28,3.92-3.02,7.64c1.07,1.79,2.81,2.46,5.84,2.84c5.36,0.68,10.92,2.11,16.84,3.17c-4.5,3.14-9.96,6.21-15.79,10.36
		c-4.07,2.88-4.43,6.82-0.38,8.29c6.71,2.39,11.56,1.29,13.91-0.26c7.96-5.21,15.56-10.63,22.74-16.37
		c0.07,1.12,0.24,2.23,0.48,3.33c0.85,3.81,3.79,3.33,9.99-0.68c1.39-0.79,2.4-2.11,2.82-3.66c0.91-3.52,1.78-6.86,2.64-10.02
		l0.13-0.49c3.68,0.66,7.27,1.7,10.73,3.08l-0.22,0.27c-2.6,3.42-5,6.64-6.79,9.27c-3.25,4.75-3.31,7.22-1.06,7
		c0.82-0.13,1.63-0.39,2.37-0.78c4.15-2.06,6.41-3.48,8.01-6.13c1.38-2.29,2.73-4.5,4.07-6.6l1.49,0.89
		c2.16,1.36,4.17,2.93,6.02,4.69c2.81,2.51,4.96,5.67,6.26,9.2c0.05,0.68,0.65,1.17,1.32,1.1l0.21,0.02
		c0.75-0.15,1.48-0.38,2.18-0.7c1.4-0.61,2.73-1.38,3.96-2.29c1.5-0.95,1.12-1.64,1.02-3.59c-0.4-6.96-0.65-13.55-0.77-19.79
		c1.39-0.28,2.79-0.6,4.17-0.92l2.51-0.61l-0.08,1.26c-0.38,6.2-0.12,12.41,0.81,18.54c0.92,5.88,4.51,3.89,7.68,2.76
		c4.09-1.45,4.67-2.66,4.75-5.03c0.13-5.14,0.5-10.06,0.96-14.56l4.15-1.44l0.65-0.23C134.8,81.95,143.94,84.63,146.61,81.94"/>
	<path fill="#DFE347" d="M148.11,83.96c-0.21,0-0.42,0.02-0.63,0.06c-1.84,0.31-2.42,1.56-1.44,2.89c0.28,0.41,0.65,0.77,1.07,1.04
		c1.64,1.09,3.7,0.39,4.43-2.11C152.14,83.68,151.09,82.96,148.11,83.96"/>
	<path fill="#DFE347" d="M110.66,23.83c0.51-0.95,0.93-1.78,1.3-2.54c0.35,2.35,0.7,4.77,1.15,7.13c-0.64,0.16-1.75,0.5-2.96,0.85
		l-2.95,0.85C108.57,27.73,109.79,25.57,110.66,23.83 M25.43,27.76c7.02,2.2,14.21,3.75,21.5,4.63c-4.66,4.02-9.49,6.76-20.39,10.67
		c-7.03,2.51,7.72,8.64,12.49,6.55c10.51-4.63,18.06-9.52,22.63-14.67c-0.18,1.84-0.08,3.71,0.29,5.51
		c0.85,3.73,4.33,4.67,7.51,2.01c6.12-0.68,13.32-1.9,19.42-2.91c-0.22,1.02,0.43,2.03,1.45,2.26l0.34,0.02l2.11,0.26
		c4.76,0.47,7.47-0.13,8.41-1.73c0.44-0.71,0.84-1.4,1.24-2.08l7.08-3.19c2.15-0.94,4.03-1.77,4.47-1.92
		c0.47,2.14,1.06,4.25,1.76,6.33c0.77,2.21,3.85,3.23,8.4,2.82c3.57-0.35,3.7-1.47,3.02-4.11c-0.69-2.64-1.35-5.6-1.88-8.28
		l5.07-1.14l1.34-0.28c2.89-0.58,2.79-2.15-1.07-2.54c-1.14-0.11-2.29-0.14-3.43-0.08c-0.88,0.05-1.72,0.11-2.62,0.2
		c-1-6.45-1.25-13-0.76-19.51c0.21-3.21-2.14-4.14-10.03-4.09c-0.32,0.02-0.65,0.05-0.96,0.09c-2.76,0.56-2.64,3.55-1.94,9.44
		c-3.58-0.66-4.81-0.66-6.31,1.71c-3.07,4.71-6.85,9.85-10.54,15.53c-0.76,1.17-1.49,2.36-2.24,3.58c-0.54,0.91-1.03,1.74-1.42,2.52
		c-4.69-0.31-9.93-0.22-15.45-0.04c1.42-3.34,2.52-5.6,3.77-8.76c6.69-1.74,20.27-5.2,2.6-7.13c0.91-2.18,1.82-4.42,2.77-6.68
		c3.63-0.48,8.13-1.06,11.79-1.91l0.95-0.23c5.44-1.36,3.59-2.39-0.62-3.06c-6.05-0.8-12.14-1.28-18.24-1.45
		c-2.63-0.3-6.56-1.59-7.85,1.9c-2.72,6.46-5.1,13.06-7.11,19.77c-0.52-0.74-1.22-1.33-2.02-1.73c-3.69-1.55-10.51-2.58-17.74-4.27
		c3.29-1.16,10.19-3.3,15.35-4.68c5.66-1.51-5.38-8.94-8.73-7.75c-6.37,2.33-14.35,4.99-21.34,7.71c-2.95,1.13-5.04,2.59-5.7,4.9
		C21.72,25.7,22.91,26.92,25.43,27.76"/>
	<path fill="#DFE347" d="M128.93,58.58c-1.04,0.36-2.2,0.73-3.51,1.11c0.54-2.73,1.13-5.28,1.77-7.66l2.3,0.03
		C139.82,52.33,139.51,54.96,128.93,58.58 M89.98,70.88c1.15-0.15,2.26-0.32,3.39-0.49c-0.02,0.37,0.03,0.74,0.04,1.1
		c0.11,2.54,0.23,4.94,0.35,7.2c-1.27-1.26-2.68-2.35-4.21-3.26c-0.97-0.63-1.95-1.25-2.76-1.73c-0.81-0.48-1.16-0.68-1.52-0.85
		l0.97-1.47 M93.19,65.94l-1.33,0.17l-1.42,0.18l-0.88,0.1c0.23-0.36,0.6-0.87,1.01-1.45c0.89-1.21,1.7-2.48,2.44-3.79
		c0.05,1.07,0.08,2.11,0.12,3.14C93.15,64.84,93.16,65.41,93.19,65.94 M147.74,79.68c0.88-1.11,1.02-2.64,0.37-3.91
		c-0.15-0.38-0.32-0.76-0.51-1.12c-2.29-4.35-4.85-7.92-5.85-11.83c2.85-1.06,5.55-2.49,8.02-4.26c3-2.41,2.71-4.41,0.58-6.04
		c-3.83-2.96-13.61-4.74-20.23-5.63c-2.76-0.35-4.98-0.57-6.07-0.66c-2.71-0.78-5.46-1.41-8.24-1.87c-1.7-0.26-3.07,0.67-3.55,3.42
		c-0.87,4.83-1.72,9.93-2.27,15.3l-2.47,0.52l-3.13,0.61l-1.5,0.28c-0.08-6.1-0.02-11.85,0.12-17.16c0.03-0.47-0.03-0.94-0.17-1.39
		c-0.58-1.55-2.73-1.06-7.33,1.32c-2,0.9-2.74,1.74-2.87,3.6c-0.2,0.87-0.55,1.7-1.04,2.44c-3.05,4.79-6.35,9.41-9.89,13.85
		c-5.46,0.45-10.9,0.72-16.31,0.88c1.48-5.43,2.87-10.26,4.07-14.49c1.74-0.37,3.45-0.83,5.14-1.38c3.31,1.93,5.69,1.7,7.92,0.11
		c6.82-4.86,5.8-6.74-3.67-6.32c-14.7,0.64-30.18,5.72-43.62,7c-4.09,0.38-5.32,2.64-2.05,5.02c2.46,1.75,14,0.3,18.73-0.78
		c-1.82,6.76-3.08,13.65-3.78,20.61c-1.1-0.4-2.22-0.74-3.37-1.01c-7.13-1.49-14.38-2.38-21.66-2.69
		c5.65-2.48,11.66-5.02,18.19-7.22c4.64-1.55,3.07-2.52-4.49-4.79c-3.06-1.09-6.39-1.11-9.45-0.04c-6.55,2.31-13.1,4.29-19.5,6.9
		c-4.46,1.63-5.28,3.92-3.02,7.64c1.07,1.79,2.81,2.46,5.84,2.84c5.36,0.68,10.92,2.11,16.84,3.17c-4.5,3.14-9.96,6.21-15.79,10.36
		c-4.07,2.88-4.43,6.82-0.38,8.29c6.71,2.39,11.56,1.29,13.91-0.25c7.96-5.21,15.56-10.63,22.74-16.37
		c0.07,1.12,0.24,2.23,0.48,3.33c0.85,3.81,3.79,3.33,9.99-0.68c1.39-0.79,2.4-2.11,2.82-3.66c0.91-3.52,1.78-6.86,2.64-10.02
		l0.13-0.49c3.68,0.66,7.27,1.7,10.73,3.08l-0.22,0.27c-2.59,3.42-5,6.64-6.79,9.27c-3.25,4.75-3.31,7.22-1.06,7
		c0.82-0.13,1.63-0.39,2.37-0.79c4.15-2.06,6.41-3.47,8.01-6.13c1.39-2.3,2.73-4.5,4.07-6.6l1.49,0.88
		c2.16,1.36,4.17,2.93,6.02,4.69c2.81,2.51,4.96,5.66,6.26,9.2c0.05,0.68,0.65,1.17,1.32,1.1l0.21,0.01
		c0.75-0.15,1.48-0.38,2.18-0.7c1.4-0.61,2.73-1.38,3.96-2.29c1.5-0.95,1.12-1.64,1.02-3.59c-0.4-6.96-0.65-13.55-0.77-19.79
		c1.39-0.28,2.79-0.6,4.17-0.92l2.51-0.61l-0.08,1.26c-0.38,6.2-0.12,12.41,0.81,18.54c0.92,5.88,4.51,3.89,7.68,2.76
		c4.09-1.45,4.67-2.66,4.75-5.03c0.13-5.14,0.5-10.06,0.96-14.56l4.15-1.44l0.65-0.23C135.93,79.69,145.07,82.38,147.74,79.68"/>
</g>
</svg>
