<svg xmlns="http://www.w3.org/2000/svg" width="86" height="39.6" viewBox="0 0 86 39.6"><defs><style>.a,.c{fill:#fff;}.a{fill-rule:evenodd;}.b{fill:#2d2a26;}</style></defs><title>guarana-logo-2020-new-exit</title><polygon class="a" points="28.32 27.66 25.72 27.66 20.05 27.66 18.5 25.92 16.98 27.76 10.76 27.76 6.92 23.32 6.92 8.4 10.7 4.02 45.87 4.02 47.6 6 49.2 4.02 75.32 4.02 79.08 8.36 79.08 27.66 60.2 27.66 58.7 34.59 56.22 35.57 30 35.63 26.3 36.98 28.32 27.66"/><polygon class="b" points="57.5 33.57 55.95 34.18 29.76 34.22 28.19 34.77 29.92 26.87 31.83 26.18 57.74 26.28 59.23 25.67 57.5 33.57"/><polygon class="c" points="33.6 30.75 34.23 27.89 35.27 27.89 34.18 32.86 33.09 32.87 32.64 30.01 32.01 32.87 30.98 32.87 32.07 27.9 33.16 27.89 33.6 30.75"/><path class="c" d="M35.79,27.89H39l-1.09,5H34.7Zm.23,4h1l.68-3.09h-1Z"/><polygon class="c" points="42.9 33.05 39.78 33.06 40.15 31.39 41.33 31.38 41.19 32.04 41.93 32.04 42.12 31.18 40.52 29.84 40.99 27.7 44.04 27.69 43.69 29.29 42.61 29.29 42.73 28.72 41.96 28.72 41.8 29.42 43.4 30.75 42.9 33.05"/><polygon class="c" points="43.41 33.05 44.58 27.69 45.77 27.69 44.82 32.03 46.48 32.03 46.26 33.04 43.41 33.05"/><polygon class="c" points="47.95 27.68 50.7 27.68 50.48 28.7 48.9 28.7 48.67 29.73 50.17 29.73 49.95 30.73 48.47 30.73 48.19 32.03 49.79 32.02 49.57 33.04 46.77 33.04 47.95 27.68"/><polygon class="c" points="51.17 27.68 53.93 27.67 53.7 28.69 52.13 28.7 51.9 29.73 53.4 29.73 53.18 30.73 51.7 30.73 51.42 32.02 53.02 32.02 52.8 33.03 50 33.04 51.17 27.68"/><path class="c" d="M54.42,33H53.23l1-4.6,1-.76h2.43l-.87,4h-2.1Zm1.43-2.39.43-1.95h-.91l-.43,1.95Z"/><path class="b" d="M25.73,26.28H20.68l-3-3.45V5.4H28.81V22.54ZM22,23.48h2.46l.49-.6-3.45,0Zm-1.46-1.69.6.69V8.2h-.6ZM25.41,8.2V22.27l.6-.73V8.2Z"/><path class="b" d="M38.52,26.28H27.38V9.15L30.47,5.4h5.06l3,3.45Zm-3.4-2.8h.6V9.9l-.59-.69v7.21H30.78v-7l-.6.73V23.48h.6v-6.8h4.34ZM31.3,8.79h3.46l-.51-.59H31.79Z"/><path class="b" d="M68,26.28H56.47V5.4H68Zm-3.49-2.8h.69V8.2H64.5Zm-5.22,0h.58V8.2h-.58Z"/><path class="b" d="M57.91,26.28H46.78V9.15L49.86,5.4h5.06l3,3.45Zm-3.38-2.8h.58V9.9l-.6-.7v7.22H50.19v-7l-.6.73V23.48h.6V16.67h4.34ZM50.7,8.79h3.46l-.52-.59H51.19Z"/><path class="b" d="M48.22,26.28H37.1l0-20.88h8.15l3,3.45v6.86l-1.15.88,1.15.69Zm-3.38-2.8h.57V18.87l-.57-.35Zm-4.94,0h.6V16.67h1.87l.33-.25H40.51V8.79h4L44,8.2H39.88ZM44.84,9.23v5.54l.57-.44V9.9Z"/><path class="b" d="M77.68,26.28H66.55V9.15L69.64,5.4h5l3,3.45Zm-3.38-2.8h.58V9.9l-.6-.7v7.22H70v-7l-.6.73V23.48H70V16.67H74.3ZM70.47,8.79h3.46l-.52-.59H71Z"/><path class="b" d="M16.31,26.33h-5l-3-3.53V8.92l3-3.52h5l2.81,3.35V23Zm-3.68-2.8H15l.33-.39h-3Zm3.21-6.94v5.94l.48-.58V16.59Zm-4.69,5.18.39.46V9.49l-.39.46ZM15.84,12h.48V9.77l-.48-.57ZM12.31,8.58h3L15,8.2H12.63Z"/><polygon class="c" points="24.01 6.8 24.01 16.28 24.01 21.16 24.01 21.49 22.49 21.49 22.49 6.8 19.09 6.8 19.09 22.31 21.32 24.88 25.07 24.88 27.41 22.04 27.41 6.8 24.01 6.8"/><path class="c" d="M34.89,6.8H31.13L28.78,9.65V24.88h3.41v-6.8h1.53v2h0v4.82h3.4V9.37Zm-1.17,6.48h0V15H32.19V10.19h1.53Z"/><polygon class="c" points="63.09 6.8 63.09 11.37 61.28 6.8 57.87 6.8 57.87 24.88 61.26 24.88 61.26 13.68 63.09 18.62 63.09 19.34 63.09 22.75 63.09 24.88 66.59 24.88 66.59 6.8 63.09 6.8"/><path class="c" d="M54.28,6.8H50.53L48.18,9.65V24.88h3.41V18.07h1.54v2.54h0v4.27h3.38V9.37Zm-1.17,6.65h0V15H51.59V10.19h1.52Z"/><path class="c" d="M46.81,9.37,44.59,6.8H38.48l0,18.08h3.4V20.72h0V18.07h1.54v6.8h3.37v-6.8l-2.23-1.34L46.81,15ZM43.44,15H41.91V10.19h1.54Z"/><path class="c" d="M74.05,6.8H70.3L68,9.65V24.88h3.4V18.07H72.9v6.81h3.38V9.37Zm-1.17,6.37V15H71.36V10.19h1.52Z"/><polygon class="a" points="17.72 13.43 17.72 9.26 15.66 6.8 11.98 6.8 9.75 9.43 9.75 22.29 11.98 24.93 15.66 24.93 17.72 22.46 17.72 15.19 13.59 15.19 13.59 17.55 14.44 17.55 14.44 21.74 12.94 21.74 12.94 9.98 14.44 9.98 14.44 13.43 17.72 13.43"/></svg>