<?xml version="1.0" encoding="UTF-8"?> <svg xmlns="http://www.w3.org/2000/svg" overflow="scroll" baseProfile="tiny" viewBox="0 0 122 63" xml:space="preserve"> <g fill="#fff"> <path d="m35.2 13.9c-0.5 0-1 0.4-1.1 0.9 0 0.3 0.1 0.5 0.2 0.7 0.2 0.2 0.4 0.3 0.7 0.4h0.1c0.5 0 0.9-0.4 1-0.9 0-0.3-0.1-0.5-0.2-0.7-0.2-0.3-0.4-0.4-0.7-0.4z"></path> <path d="m32 49.4c-0.6 0-1 0.4-1.1 0.9 0 0.3 0.1 0.5 0.2 0.7 0.2 0.2 0.4 0.3 0.7 0.4h0.1c0.5 0 0.9-0.4 1-0.9 0.1-0.6-0.3-1.1-0.9-1.1z"></path> <path d="m38.4 14.5c-0.5-0.1-1.1 0.2-1.2 0.7-0.1 0.3 0 0.5 0.1 0.7s0.3 0.4 0.6 0.5h0.3c0.4 0 0.8-0.3 1-0.7 0.1-0.6-0.3-1.1-0.8-1.2z"></path> <path d="m29.2 48.9h-0.3c-0.4 0-0.8 0.3-1 0.7-0.1 0.3 0 0.5 0.1 0.7s0.3 0.4 0.6 0.5h0.3c0.4 0 0.8-0.3 1-0.7 0.1-0.5-0.2-1.1-0.7-1.2z"></path> <path d="m41.5 15.6c-0.1-0.1-0.3-0.1-0.4-0.1-0.4 0-0.7 0.2-0.9 0.6-0.1 0.2-0.1 0.5 0 0.8 0.1 0.2 0.3 0.4 0.5 0.5 0.1 0.1 0.3 0.1 0.4 0.1 0.4 0 0.7-0.2 0.9-0.6 0.2-0.5 0-1.1-0.5-1.3z"></path> <path d="m26.4 47.9c-0.1-0.1-0.3-0.1-0.4-0.1-0.4 0-0.7 0.2-0.9 0.6-0.1 0.2-0.1 0.5 0 0.8 0.1 0.2 0.3 0.4 0.5 0.6 0.1 0.1 0.3 0.1 0.4 0.1 0.4 0 0.7-0.2 0.9-0.6 0.1-0.2 0.1-0.5 0-0.8s-0.3-0.5-0.5-0.6z"></path> <path d="m43 17.5c-0.3 0.4-0.2 1.1 0.2 1.4 0.2 0.1 0.4 0.2 0.6 0.2 0.3 0 0.6-0.2 0.8-0.4 0.3-0.5 0.2-1.1-0.2-1.4-0.5-0.4-1.1-0.3-1.4 0.2z"></path> <path d="m23.3 46.2c-0.3 0-0.6 0.2-0.8 0.4s-0.2 0.5-0.2 0.7c0 0.3 0.2 0.5 0.4 0.6s0.4 0.2 0.6 0.2c0.3 0 0.6-0.2 0.8-0.4s0.2-0.5 0.2-0.7c0-0.3-0.2-0.5-0.4-0.6s-0.4-0.2-0.6-0.2z"></path> <path d="m45.4 19.3c-0.2 0.2-0.3 0.4-0.3 0.7s0.1 0.5 0.3 0.7 0.4 0.3 0.7 0.3 0.5-0.1 0.7-0.3 0.3-0.4 0.3-0.7-0.1-0.5-0.3-0.7c-0.3-0.3-1-0.3-1.4 0z"></path> <path d="m20.2 44.5c-0.2 0.2-0.3 0.4-0.3 0.7s0.1 0.5 0.3 0.7 0.4 0.3 0.7 0.3 0.5-0.1 0.7-0.3c0.4-0.4 0.4-1 0-1.4s-1-0.4-1.4 0z"></path> <path d="m48.1 23.4c0.2 0 0.4-0.1 0.6-0.2 0.2-0.2 0.4-0.4 0.4-0.6 0-0.3 0-0.5-0.2-0.7-0.2-0.3-0.5-0.4-0.8-0.4-0.2 0-0.4 0.1-0.6 0.2-0.4 0.3-0.6 0.9-0.2 1.4 0.2 0.1 0.5 0.3 0.8 0.3z"></path> <path d="m18.9 41.8c-0.2 0-0.4 0.1-0.6 0.2-0.2 0.2-0.4 0.4-0.4 0.6 0 0.3 0 0.5 0.2 0.7 0.2 0.3 0.5 0.4 0.8 0.4 0.2 0 0.4-0.1 0.6-0.2 0.2-0.2 0.4-0.4 0.4-0.6 0-0.3 0-0.5-0.2-0.7s-0.5-0.4-0.8-0.4z"></path> <path d="m48.8 24.8c-0.1 0.2-0.1 0.5 0 0.8 0.2 0.3 0.5 0.6 0.9 0.6 0.1 0 0.3 0 0.4-0.1 0.5-0.2 0.7-0.8 0.5-1.3-0.2-0.3-0.5-0.6-0.9-0.6-0.1 0-0.3 0-0.4 0.1-0.3 0-0.4 0.2-0.5 0.5z"></path> <path d="m18.3 39.7c-0.2-0.3-0.5-0.6-0.9-0.6-0.1 0-0.3 0-0.4 0.1-0.2 0.1-0.4 0.3-0.5 0.6-0.1 0.2-0.1 0.5 0 0.8 0.2 0.3 0.5 0.6 0.9 0.6 0.1 0 0.3 0 0.4-0.1 0.5-0.3 0.7-0.9 0.5-1.4z"></path> <path d="m49.8 28.3c0.1 0.4 0.5 0.7 0.9 0.7h0.3c0.5-0.1 0.8-0.7 0.7-1.2-0.1-0.4-0.5-0.7-1-0.7h-0.3c-0.4 0.1-0.7 0.7-0.6 1.2z"></path> <path d="m17.3 37c-0.1-0.4-0.5-0.7-0.9-0.7h-0.3c-0.5 0.1-0.8 0.7-0.7 1.2 0.1 0.4 0.5 0.7 1 0.7h0.3c0.4-0.2 0.7-0.7 0.6-1.2z"></path> <path d="m51.2 30.1c-0.5 0-0.9 0.5-0.9 1.1 0 0.5 0.5 0.9 1 0.9h0.1c0.3 0 0.5-0.2 0.7-0.4s0.2-0.5 0.2-0.7c-0.1-0.5-0.5-0.9-1.1-0.9 0.1 0 0 0 0 0z"></path> <path d="m15.9 35.1c0.3 0 0.5-0.1 0.7-0.4 0.2-0.2 0.2-0.5 0.2-0.7 0-0.5-0.5-0.9-1-0.9h-0.1c-0.3 0-0.5 0.1-0.7 0.3s-0.3 0.5-0.2 0.7c0 0.6 0.5 1 1.1 1-0.1 0-0.1 0 0 0z"></path> <path d="m51.4 33.2c-0.5 0-1 0.4-1.1 0.9 0 0.3 0.1 0.5 0.2 0.7 0.2 0.2 0.4 0.3 0.7 0.4h0.1c0.5 0 0.9-0.4 1-0.9 0-0.3-0.1-0.5-0.2-0.7-0.2-0.2-0.5-0.4-0.7-0.4z"></path> <path d="m15.7 32c0.6 0 1-0.4 1.1-0.9 0-0.3-0.1-0.5-0.2-0.7-0.2-0.2-0.4-0.3-0.7-0.4-0.5-0.1-1 0.4-1.1 0.9-0.1 0.6 0.3 1.1 0.9 1.1z"></path> <path d="m51 36.3h-0.3c-0.4 0-0.8 0.3-1 0.7-0.1 0.3 0 0.5 0.1 0.7s0.3 0.4 0.6 0.5h0.3c0.4 0 0.8-0.3 1-0.7 0.1-0.5-0.2-1.1-0.7-1.2z"></path> <path d="m16.1 28.9h0.3c0.4 0 0.8-0.3 1-0.7 0.1-0.2 0-0.5-0.1-0.7s-0.3-0.4-0.6-0.5h-0.3c-0.4 0-0.8 0.3-1 0.7-0.2 0.6 0.1 1.1 0.7 1.2z"></path> <path d="m50.1 39.3c-0.1-0.1-0.3-0.1-0.4-0.1-0.4 0-0.7 0.2-0.9 0.6-0.2 0.5 0 1.1 0.5 1.3 0.1 0.1 0.3 0.1 0.4 0.1 0.4 0 0.7-0.2 0.9-0.6 0.2-0.5 0-1.1-0.5-1.3z"></path> <path d="m17 26c0.1 0.1 0.3 0.1 0.4 0.1 0.4 0 0.7-0.2 0.9-0.6 0.2-0.5 0-1.1-0.5-1.3-0.1-0.1-0.3-0.1-0.4-0.1-0.4 0-0.7 0.2-0.9 0.6s0 1 0.5 1.3z"></path> <path d="m48.1 41.9c-0.3 0-0.6 0.2-0.8 0.4s-0.2 0.5-0.2 0.7c0 0.3 0.2 0.5 0.4 0.6s0.4 0.2 0.6 0.2c0.3 0 0.6-0.2 0.8-0.4 0.3-0.4 0.2-1.1-0.2-1.4-0.2-0.1-0.4-0.1-0.6-0.1z"></path> <path d="m18.9 21.4c-0.3 0-0.6 0.2-0.8 0.4-0.3 0.5-0.2 1.1 0.2 1.4 0.2 0.1 0.4 0.2 0.6 0.2 0.3 0 0.6-0.2 0.8-0.4 0.3-0.4 0.2-1.1-0.2-1.4-0.2-0.1-0.4-0.2-0.6-0.2z"></path> <path d="m45.4 44.5c-0.2 0.2-0.3 0.4-0.3 0.7s0.1 0.5 0.3 0.7 0.4 0.3 0.7 0.3 0.5-0.1 0.7-0.3c0.4-0.4 0.4-1 0-1.4-0.4-0.3-1-0.3-1.4 0z"></path> <path d="m20.2 19.3c-0.1 0.2-0.2 0.4-0.2 0.7s0.1 0.5 0.3 0.7 0.4 0.3 0.7 0.3 0.5-0.1 0.7-0.3c0.4-0.4 0.4-1 0-1.4s-1.1-0.4-1.5 0z"></path> <path d="m43.7 46.2c-0.2 0-0.4 0.1-0.6 0.2s-0.4 0.4-0.4 0.6c0 0.3 0 0.5 0.2 0.7 0.2 0.3 0.5 0.4 0.8 0.4 0.2 0 0.4-0.1 0.6-0.2 0.4-0.3 0.6-0.9 0.2-1.4-0.1-0.1-0.4-0.3-0.8-0.3z"></path> <path d="m23.3 17c-0.2 0-0.4 0.1-0.6 0.2-0.4 0.3-0.6 0.9-0.2 1.4 0.2 0.3 0.5 0.4 0.8 0.4 0.2 0 0.4-0.1 0.6-0.2 0.2-0.2 0.4-0.4 0.4-0.6 0-0.3 0-0.5-0.2-0.7-0.1-0.3-0.5-0.5-0.8-0.5z"></path> <path d="m41 47.8c-0.1 0-0.3 0-0.4 0.1-0.2 0.1-0.4 0.3-0.5 0.5s-0.1 0.5 0 0.8c0.2 0.3 0.5 0.6 0.9 0.6 0.1 0 0.3 0 0.4-0.1 0.5-0.2 0.7-0.8 0.5-1.3-0.1-0.4-0.5-0.6-0.9-0.6z"></path> <path d="m26 15.5c-0.1 0-0.3 0-0.4 0.1-0.2 0.1-0.4 0.3-0.5 0.6-0.1 0.2-0.1 0.5 0 0.8 0.2 0.4 0.5 0.6 0.9 0.6 0.1 0 0.3 0 0.4-0.1 0.5-0.2 0.7-0.8 0.5-1.3-0.1-0.5-0.5-0.7-0.9-0.7z"></path> <path d="m37.9 48.9c-0.3 0.1-0.5 0.2-0.6 0.5-0.1 0.2-0.2 0.5-0.1 0.8 0.1 0.4 0.5 0.7 1 0.7h0.3c0.5-0.1 0.8-0.7 0.7-1.2-0.3-0.6-0.8-0.9-1.3-0.8z"></path> <path d="m28.7 14.4c-0.5 0.1-0.8 0.7-0.7 1.2 0.1 0.4 0.5 0.7 1 0.7h0.3c0.3-0.1 0.5-0.2 0.6-0.5 0.1-0.2 0.2-0.5 0.1-0.7-0.2-0.5-0.8-0.8-1.3-0.7z"></path> <path d="m35 49.4c-0.5 0-0.9 0.5-0.9 1.1 0 0.5 0.5 0.9 1 0.9h0.1c0.3 0 0.5-0.1 0.7-0.3s0.2-0.5 0.2-0.7c-0.1-0.6-0.6-1-1.1-1z"></path> <path d="m31.9 13.9c-0.5 0-0.9 0.5-0.9 1.1 0 0.5 0.5 0.9 1 0.9h0.1c0.5 0 0.9-0.5 0.9-1.1-0.1-0.6-0.5-1-1.1-0.9z"></path> <path d="m33.5 17.9c0.6 0 1-0.5 1-1 0-0.6-0.5-1-1-1-0.6 0-1 0.5-1 1 0 0.6 0.4 1 1 1zm0-0.2z"></path> <path d="m33.6 47.3c-0.6 0-1 0.5-1 1s0.5 1 1 1c0.6 0 1-0.5 1-1s-0.4-1-1-1zm0 1.8z"></path> <path d="m36 18.1h0.2c0.5 0 0.9-0.4 1-0.8 0-0.3 0-0.5-0.2-0.8-0.2-0.2-0.4-0.4-0.7-0.4-0.6-0.1-1.1 0.3-1.2 0.8 0 0.6 0.4 1.1 0.9 1.2z"></path> <path d="m31 47.1c-0.6-0.1-1.1 0.3-1.2 0.8 0 0.3 0 0.5 0.2 0.8 0.2 0.2 0.4 0.4 0.7 0.4h0.2c0.5 0 0.9-0.3 1-0.8 0.1-0.6-0.3-1.1-0.9-1.2z"></path> <path d="m38.5 18.8c0.1 0 0.2 0.1 0.4 0.1 0.4 0 0.8-0.3 0.9-0.7 0.2-0.5-0.1-1.1-0.6-1.3s-1.1 0.1-1.3 0.6c-0.1 0.3-0.1 0.5 0 0.8 0.1 0.2 0.3 0.4 0.6 0.5z"></path> <path d="m28.6 46.5c-0.5-0.2-1.1 0.1-1.3 0.6-0.1 0.3-0.1 0.5 0 0.8 0.1 0.2 0.3 0.4 0.6 0.5 0.1 0 0.2 0.1 0.3 0.1 0.4 0 0.8-0.3 0.9-0.7 0.3-0.6 0-1.1-0.5-1.3z"></path> <path d="m40.8 19.9c0.2 0.1 0.3 0.1 0.5 0.1 0.4 0 0.7-0.2 0.9-0.5 0.3-0.5 0.1-1.1-0.4-1.4s-1.1-0.1-1.4 0.4c-0.2 0.5-0.1 1.1 0.4 1.4z"></path> <path d="m26.2 45.4c-0.5-0.3-1.1-0.1-1.4 0.4-0.1 0.2-0.2 0.5-0.1 0.8s0.2 0.5 0.5 0.6c0.2 0.1 0.3 0.1 0.5 0.1 0.4 0 0.7-0.2 0.9-0.5 0.1-0.2 0.2-0.5 0.1-0.8s-0.2-0.5-0.5-0.6z"></path> <path d="m43.6 21.5c0.3 0 0.6-0.1 0.8-0.4 0.2-0.2 0.3-0.5 0.2-0.7 0-0.3-0.2-0.5-0.4-0.7-0.4-0.3-1.1-0.3-1.4 0.1-0.2 0.2-0.3 0.5-0.2 0.7 0 0.3 0.2 0.5 0.4 0.7 0.1 0.3 0.3 0.3 0.6 0.3z"></path> <path d="m22.7 44.1c-0.2 0.2-0.3 0.5-0.2 0.7 0 0.3 0.2 0.5 0.4 0.7 0.2 0.1 0.4 0.2 0.6 0.2 0.3 0 0.6-0.1 0.8-0.4 0.4-0.4 0.3-1.1-0.1-1.4-0.5-0.3-1.2-0.2-1.5 0.2z"></path> <path d="m44.8 23.1c0.2 0.2 0.5 0.4 0.8 0.4 0.2 0 0.5-0.1 0.7-0.2 0.4-0.4 0.5-1 0.1-1.4-0.3-0.4-1-0.5-1.4-0.1-0.5 0.3-0.6 0.9-0.2 1.3z"></path> <path d="m22.3 42.1c-0.3-0.4-1-0.5-1.4-0.1-0.2 0.2-0.3 0.4-0.4 0.7 0 0.3 0.1 0.5 0.2 0.7 0.2 0.2 0.5 0.4 0.8 0.4 0.2 0 0.5-0.1 0.7-0.2 0.2-0.2 0.3-0.4 0.4-0.7 0-0.3-0.1-0.6-0.3-0.8z"></path> <path d="m46.1 24.4c-0.1 0.3 0 0.5 0.1 0.8 0.2 0.3 0.5 0.5 0.9 0.5 0.2 0 0.4-0.1 0.5-0.1 0.5-0.3 0.6-0.9 0.4-1.4-0.3-0.5-0.9-0.6-1.4-0.4-0.2 0.2-0.4 0.4-0.5 0.6z"></path> <path d="m20.9 40.8c0.1-0.3 0-0.5-0.1-0.8-0.3-0.5-0.9-0.6-1.4-0.4-0.2 0.2-0.4 0.4-0.4 0.7-0.1 0.3 0 0.5 0.1 0.8 0.2 0.3 0.5 0.5 0.9 0.5 0.2 0 0.4 0 0.5-0.1 0.2-0.2 0.4-0.4 0.4-0.7z"></path> <path d="m47.4 26.8c-0.1 0.2-0.1 0.5 0 0.8 0.1 0.4 0.5 0.7 0.9 0.7 0.1 0 0.2 0 0.4-0.1s0.5-0.3 0.6-0.5c0.1-0.3 0.1-0.5 0-0.8-0.2-0.5-0.8-0.8-1.3-0.6-0.3 0-0.5 0.2-0.6 0.5z"></path> <path d="m19.7 37.7c-0.2-0.5-0.8-0.8-1.3-0.6s-0.8 0.8-0.6 1.3c0.1 0.4 0.5 0.7 1 0.7 0.1 0 0.2 0 0.4-0.1 0.5-0.2 0.7-0.8 0.5-1.3z"></path> <path d="m48.2 29.3c-0.2 0.2-0.2 0.4-0.2 0.7 0.1 0.5 0.5 0.8 1 0.8h0.2c0.3-0.1 0.5-0.2 0.7-0.4s0.2-0.5 0.2-0.7c-0.1-0.5-0.6-0.9-1.2-0.8-0.3 0-0.6 0.1-0.7 0.4z"></path> <path d="m18.2 36.4c0.3 0 0.5-0.2 0.7-0.4s0.2-0.5 0.2-0.8c-0.1-0.5-0.6-0.9-1.2-0.8-0.3 0-0.5 0.2-0.7 0.4s-0.2 0.5-0.2 0.8c0.1 0.5 0.5 0.8 1 0.8h0.2z"></path> <path d="m49.2 31.5c-0.3 0-0.5 0.1-0.7 0.3s-0.3 0.5-0.3 0.7c0 0.6 0.5 1 1 1 0.6 0 1-0.5 1-1 0.1-0.5-0.4-1-1-1z"></path> <path d="m17.8 33.7c0.6 0 1-0.5 1-1 0-0.6-0.5-1-1-1-0.3 0-0.5 0.1-0.7 0.3s-0.3 0.5-0.3 0.7c0 0.5 0.5 1 1 1z"></path> <path d="m49.2 34.3c-0.6-0.1-1.1 0.3-1.2 0.8 0 0.3 0 0.5 0.2 0.8 0.2 0.2 0.4 0.4 0.7 0.4h0.2c0.5 0 0.9-0.4 1-0.8 0-0.6-0.4-1.1-0.9-1.2z"></path> <path d="m17.9 31h0.2c0.5 0 0.9-0.3 1-0.8 0-0.3 0-0.5-0.2-0.8-0.2-0.2-0.4-0.4-0.7-0.4-0.6-0.1-1.1 0.3-1.2 0.8s0.3 1.1 0.9 1.2z"></path> <path d="m48.7 37c-0.5-0.2-1.1 0.1-1.3 0.6s0.1 1.1 0.6 1.3c0.1 0 0.2 0.1 0.3 0.1 0.4 0 0.8-0.3 1-0.7 0.2-0.5-0.1-1.1-0.6-1.3z"></path> <path d="m18.4 28.3c0.1 0 0.2 0.1 0.3 0.1 0.4 0 0.8-0.3 1-0.7 0.2-0.5-0.1-1.1-0.6-1.3s-1.1 0.1-1.3 0.6 0.1 1.1 0.6 1.3z"></path> <path d="m47.7 39.5c-0.5-0.3-1.1-0.1-1.4 0.4-0.1 0.2-0.2 0.5-0.1 0.8s0.2 0.5 0.5 0.6c0.2 0.1 0.3 0.1 0.5 0.1 0.4 0 0.7-0.2 0.9-0.5 0.2-0.5 0.1-1.1-0.4-1.4z"></path> <path d="m19.4 25.7c0.2 0.1 0.3 0.1 0.5 0.1 0.4 0 0.7-0.2 0.9-0.5 0.3-0.5 0.1-1.1-0.4-1.4s-1.1-0.1-1.4 0.4-0.1 1.1 0.4 1.4z"></path> <path d="m44.8 42c-0.2 0.2-0.3 0.5-0.2 0.7 0 0.3 0.2 0.5 0.4 0.7 0.2 0.1 0.4 0.2 0.6 0.2 0.3 0 0.6-0.1 0.8-0.4 0.4-0.4 0.3-1.1-0.1-1.4s-1.1-0.2-1.5 0.2z"></path> <path d="m21.4 23.6c0.3 0 0.6-0.1 0.8-0.4 0.3-0.4 0.3-1.1-0.1-1.4s-1.1-0.3-1.4 0.1c-0.4 0.4-0.3 1.1 0.1 1.4 0.2 0.2 0.4 0.3 0.6 0.3z"></path> <path d="m43 43.8c-0.4 0.4-0.5 1-0.1 1.4 0.2 0.2 0.5 0.4 0.8 0.4 0.2 0 0.5-0.1 0.6-0.2 0.2-0.2 0.3-0.4 0.4-0.7 0-0.3-0.1-0.5-0.2-0.7-0.4-0.4-1.1-0.5-1.5-0.2z"></path> <path d="m23.4 21.6c0.2 0 0.5-0.1 0.6-0.2 0.2-0.2 0.3-0.4 0.4-0.7 0-0.3-0.1-0.5-0.2-0.7-0.3-0.4-1-0.5-1.4-0.1s-0.5 1-0.1 1.4c0.1 0.2 0.4 0.3 0.7 0.3z"></path> <path d="m40.9 45.3c-0.2 0.1-0.4 0.4-0.5 0.6-0.1 0.3 0 0.5 0.1 0.8 0.2 0.3 0.5 0.5 0.9 0.5 0.2 0 0.4-0.1 0.5-0.1 0.5-0.3 0.6-0.9 0.4-1.4s-0.9-0.6-1.4-0.4z"></path> <path d="m25.6 20.1c0.2 0 0.4 0 0.5-0.1 0.5-0.3 0.6-0.9 0.4-1.4-0.3-0.5-0.9-0.6-1.4-0.4-0.2 0.1-0.4 0.4-0.5 0.6-0.1 0.3 0 0.5 0.1 0.8 0.2 0.3 0.6 0.5 0.9 0.5z"></path> <path d="m38.6 46.4c-0.3 0.1-0.5 0.3-0.6 0.5-0.1 0.3-0.1 0.5 0 0.8 0.2 0.4 0.5 0.7 0.9 0.7 0.1 0 0.2 0 0.4-0.1 0.5-0.2 0.8-0.8 0.6-1.3s-0.8-0.8-1.3-0.6z"></path> <path d="m28.1 18.9c0.1 0 0.2 0 0.4-0.1 0.3-0.1 0.5-0.3 0.6-0.5s0.1-0.5 0-0.8c-0.2-0.5-0.8-0.8-1.3-0.6s-0.8 0.8-0.6 1.3c0.1 0.4 0.5 0.7 0.9 0.7z"></path> <path d="m36.1 47.1c-0.5 0.1-0.9 0.6-0.8 1.2 0.1 0.5 0.5 0.8 1 0.8h0.2c0.3 0 0.5-0.2 0.7-0.4s0.2-0.5 0.2-0.8c-0.2-0.5-0.7-0.9-1.3-0.8z"></path> <path d="m30.7 18.2h0.2c0.6-0.1 0.9-0.6 0.8-1.2-0.1-0.5-0.6-0.9-1.2-0.8s-0.9 0.6-0.8 1.2c0.1 0.4 0.5 0.8 1 0.8z"></path> <circle cx="33.5" cy="13" r="1"></circle> <ellipse cx="33.5" cy="52.3" rx="1" ry="1"></ellipse> <path d="m36 13.1c0.1-0.5 0.6-0.9 1.1-0.8s0.9 0.6 0.8 1.1-0.6 0.9-1.1 0.8-0.9-0.6-0.8-1.1z"></path> <path d="m29.2 51.8c0.1-0.5 0.6-0.9 1.1-0.8s0.9 0.6 0.8 1.1-0.6 0.9-1.1 0.8c-0.6-0.1-0.9-0.6-0.8-1.1z"></path> <path d="m39.4 13.8c0.2-0.5 0.7-0.7 1.2-0.6 0.5 0.2 0.7 0.7 0.6 1.2-0.2 0.5-0.7 0.8-1.2 0.6-0.6-0.1-0.8-0.7-0.6-1.2z"></path> <path d="m25.9 50.8c0.2-0.5 0.7-0.7 1.2-0.6 0.5 0.2 0.8 0.7 0.6 1.2s-0.7 0.7-1.2 0.6c-0.5-0.2-0.8-0.8-0.6-1.2z"></path> <ellipse transform="matrix(.5009 -.8655 .8655 .5009 8.0685 45.292)" cx="43.3" cy="15.7" rx="1" ry="1"></ellipse> <path d="m22.9 49.2c0.3-0.5 0.8-0.6 1.3-0.3s0.6 0.8 0.3 1.3-0.8 0.6-1.3 0.3c-0.4-0.3-0.6-0.9-0.3-1.3z"></path> <path d="m45.4 17c0.3-0.4 0.9-0.5 1.3-0.1 0.4 0.3 0.5 0.9 0.1 1.3-0.3 0.4-0.9 0.5-1.3 0.1-0.4-0.3-0.4-0.9-0.1-1.3z"></path> <path d="m20.2 47.1c0.3-0.4 0.9-0.5 1.3-0.1 0.4 0.3 0.5 0.9 0.1 1.3-0.3 0.4-0.9 0.5-1.3 0.1-0.4-0.3-0.5-0.9-0.1-1.3z"></path> <path d="m48 19.3c0.4-0.3 1-0.3 1.3 0.1s0.3 1-0.1 1.3-1 0.3-1.3-0.1c-0.4-0.4-0.3-1 0.1-1.3z"></path> <ellipse transform="matrix(.7669 -.6418 .6418 .7669 -24.706 22.391)" cx="18.5" cy="45.2" rx=".9" ry="1"></ellipse> <ellipse transform="matrix(.8656 -.5007 .5007 .8656 -4.6377 28.352)" cx="50.5" cy="22.8" rx=".9" ry=".9"></ellipse> <ellipse transform="matrix(.8656 -.5007 .5007 .8656 -19.022 13.953)" cx="16.5" cy="42.4" rx=".9" ry=".9"></ellipse> <ellipse transform="matrix(.9393 -.3432 .3432 .9393 -5.7292 19.418)" cx="52" cy="25.9" rx=".9" ry="1"></ellipse> <path d="m14.8 38.5c0.5-0.2 1 0.1 1.2 0.6s-0.1 1-0.6 1.2-1-0.1-1.2-0.6 0.1-1.1 0.6-1.2z"></path> <path d="m52.7 28.3c0.5-0.1 1 0.3 1.1 0.8s-0.3 1-0.8 1.1-1-0.3-1.1-0.8 0.3-1 0.8-1.1z"></path> <path d="m52.8 27.1c0.5-0.1 1 0.3 1.1 0.8s-0.3 1-0.8 1.1-1-0.3-1.1-0.8c0-0.5 0.3-1 0.8-1.1z"></path> <path d="m14 35.1c0.5-0.1 1 0.3 1.1 0.8s-0.3 1-0.8 1.1-1-0.3-1.1-0.8c0-0.5 0.3-1 0.8-1.1z"></path> <path d="m53.2 31.7c0.5 0 0.9 0.4 0.9 1 0 0.5-0.4 0.9-0.9 0.9s-1-0.4-1-0.9c0-0.6 0.4-1 1-1z"></path> <ellipse cx="13.9" cy="32.6" rx=".9" ry="1"></ellipse> <path d="m53 35.1c0.5 0.1 0.9 0.6 0.8 1.1s-0.6 0.9-1.1 0.8-0.9-0.6-0.8-1.1c0.1-0.6 0.6-0.9 1.1-0.8z"></path> <path d="m14.4 28.3c0.5 0.1 0.9 0.6 0.8 1.1s-0.6 0.9-1.1 0.8-0.9-0.6-0.8-1.1c0-0.6 0.5-0.9 1.1-0.8z"></path> <path d="m52.3 38.5c0.5 0.2 0.7 0.7 0.6 1.2-0.2 0.5-0.7 0.7-1.2 0.6-0.5-0.2-0.7-0.7-0.6-1.2 0.2-0.6 0.7-0.8 1.2-0.6z"></path> <path d="m58 38.7c0.5 0.2 0.7 0.7 0.6 1.2-0.2 0.5-0.7 0.7-1.2 0.6-0.5-0.2-0.8-0.7-0.6-1.2s0.7-0.8 1.2-0.6z"></path> <path d="m59.3 36.1c0.5 0.2 0.7 0.7 0.6 1.2-0.2 0.5-0.7 0.7-1.2 0.6-0.5-0.2-0.7-0.7-0.6-1.2 0.2-0.5 0.7-0.8 1.2-0.6z"></path> <ellipse transform="matrix(.3414 -.9399 .9399 .3414 3.0747 82.481)" cx="60.4" cy="39" rx=".9" ry=".9"></ellipse> <ellipse transform="matrix(.3404 -.9403 .9403 .3404 -13.655 80.9)" cx="50.8" cy="50.2" rx="1" ry=".9"></ellipse> <path d="m53.8 47.5c0.5 0.2 0.7 0.7 0.6 1.2-0.2 0.5-0.7 0.7-1.2 0.6-0.5-0.2-0.7-0.7-0.6-1.2s0.7-0.8 1.2-0.6z"></path> <path d="m45 53.2c0.5 0.2 0.7 0.7 0.6 1.2-0.2 0.5-0.7 0.7-1.2 0.6-0.5-0.2-0.8-0.7-0.6-1.2 0.1-0.5 0.7-0.7 1.2-0.6z"></path> <path d="m34.7 55.9c0.5 0.2 0.7 0.7 0.6 1.2-0.2 0.5-0.7 0.7-1.2 0.6-0.5-0.2-0.7-0.7-0.6-1.2 0.2-0.6 0.7-0.8 1.2-0.6z"></path> <ellipse transform="matrix(.3441 -.9389 .9389 .3441 -35.802 65.219)" cx="28.8" cy="58.2" rx="1" ry=".9"></ellipse> <path d="m15.1 52.1c0.5 0.2 0.7 0.7 0.6 1.2-0.2 0.5-0.7 0.7-1.2 0.6-0.5-0.2-0.7-0.7-0.6-1.2 0.1-0.6 0.7-0.8 1.2-0.6z"></path> <ellipse transform="matrix(.3423 -.9396 .9396 .3423 -23.396 81.302)" cx="46.4" cy="57.4" rx=".9" ry="1"></ellipse> <ellipse transform="matrix(.3432 -.9393 .9393 .3432 -16.556 84.918)" cx="52.4" cy="54.3" rx="1" ry=".9"></ellipse> <path d="m56.1 47.3c0.5 0.2 0.7 0.7 0.6 1.2-0.2 0.5-0.7 0.8-1.2 0.6s-0.7-0.7-0.6-1.2 0.7-0.8 1.2-0.6z"></path> <ellipse transform="matrix(.3444 -.9388 .9388 .3444 17.141 33.36)" cx="32.5" cy="4.4" rx=".9" ry=".9"></ellipse> <path d="m16.5 8.8c0.5 0.2 0.8 0.7 0.6 1.2s-0.7 0.7-1.2 0.6c-0.5-0.2-0.7-0.7-0.6-1.2 0.2-0.5 0.7-0.8 1.2-0.6z"></path> <ellipse transform="matrix(.3441 -.9389 .9389 .3441 5.2864 25.539)" cx="20.9" cy="9" rx="1" ry=".9"></ellipse> <ellipse transform="matrix(.3423 -.9396 .9396 .3423 20.896 45.142)" cx="42.7" cy="7.6" rx=".9" ry="1"></ellipse> <path d="m57.4 16.1c0.5 0.2 0.7 0.7 0.6 1.2-0.2 0.5-0.7 0.7-1.2 0.6-0.5-0.2-0.7-0.7-0.6-1.2 0.2-0.6 0.7-0.8 1.2-0.6z"></path> <ellipse transform="matrix(.3405 -.9402 .9402 .3405 16.234 70.68)" cx="58.5" cy="23.8" rx=".9" ry=".9"></ellipse> <path d="m49.4 11.4c0.5 0.2 0.7 0.7 0.6 1.2-0.2 0.5-0.7 0.7-1.2 0.6-0.5-0.2-0.7-0.7-0.6-1.2 0.2-0.6 0.7-0.8 1.2-0.6z"></path> <ellipse transform="matrix(.3432 -.9393 .9393 .3432 23.937 52.442)" cx="49.5" cy="9.1" rx="1" ry=".9"></ellipse> <path d="m47.5 53.2c0.5 0.2 0.8 0.7 0.6 1.2s-0.7 0.7-1.2 0.6c-0.5-0.2-0.7-0.7-0.6-1.2s0.7-0.8 1.2-0.6z"></path> <path d="m56.7 43.6c0.5 0.2 0.7 0.7 0.6 1.2-0.2 0.5-0.7 0.7-1.2 0.6-0.5-0.2-0.7-0.7-0.6-1.2s0.7-0.8 1.2-0.6z"></path> <ellipse transform="matrix(.3436 -.9391 .9391 .3436 7.1589 78.578)" cx="59.8" cy="34.2" rx="1" ry=".9"></ellipse> <path d="m60 29.3c0.5 0.2 0.7 0.7 0.6 1.2-0.2 0.5-0.7 0.8-1.2 0.6s-0.8-0.7-0.6-1.2c0.1-0.5 0.7-0.7 1.2-0.6z"></path> <ellipse transform="matrix(.3433 -.9392 .9392 .3433 14.856 68.104)" cx="56.1" cy="23.4" rx="1" ry=".9"></ellipse> <path d="m5.8 25.6c0.5 0.2 0.7 0.7 0.6 1.2-0.2 0.5-0.7 0.7-1.2 0.6-0.5-0.2-0.7-0.7-0.6-1.2 0.2-0.5 0.7-0.8 1.2-0.6z"></path> <path d="m20.5 54.2c0.5 0.2 0.7 0.7 0.6 1.2-0.2 0.5-0.7 0.8-1.2 0.6s-0.7-0.7-0.6-1.2c0.2-0.6 0.7-0.8 1.2-0.6z"></path> <path d="m23.2 56.1c0.5 0.2 0.7 0.7 0.6 1.2-0.2 0.5-0.7 0.7-1.2 0.6-0.5-0.2-0.7-0.7-0.6-1.2 0.2-0.5 0.7-0.8 1.2-0.6z"></path> <ellipse transform="matrix(.3423 -.9396 .9396 .3423 -14.403 31.192)" cx="15.1" cy="25.9" rx=".9" ry=".9"></ellipse> <ellipse transform="matrix(.3424 -.9395 .9395 .3424 -14.19 28.227)" cx="13.1" cy="24.3" rx=".9" ry=".9"></ellipse> <path d="M9,23.3c0.5,0.2,0.7,0.7,0.6,1.2C9.4,25,8.9,25.2,8.4,25s-0.7-0.7-0.6-1.2C8,23.3,8.6,23.1,9,23.3z"></path> <path d="m11.1 20.9c0.5 0.2 0.7 0.7 0.6 1.2-0.2 0.5-0.7 0.7-1.2 0.6-0.5-0.2-0.8-0.7-0.6-1.2s0.7-0.8 1.2-0.6z"></path> <path d="M9.1,17.2c0.5,0.2,0.8,0.7,0.6,1.2S9,19.1,8.5,19c-0.5-0.2-0.8-0.7-0.6-1.2C8,17.3,8.6,17,9.1,17.2z"></path> <ellipse transform="matrix(.3413 -.94 .94 .3413 -17.022 30.181)" cx="13" cy="27.2" rx="1" ry="1"></ellipse> <ellipse transform="matrix(.3405 -.9402 .9402 .3405 -20.477 29.14)" cx="10.5" cy="29.2" rx=".9" ry=".9"></ellipse> <path d="m11.4 30.6c0.5 0.2 0.7 0.7 0.6 1.2-0.2 0.5-0.7 0.7-1.2 0.6-0.5-0.2-0.7-0.7-0.6-1.2 0.2-0.5 0.7-0.8 1.2-0.6z"></path> <path d="m51 41.6c0.5 0.3 0.6 0.8 0.3 1.3s-0.8 0.6-1.3 0.3-0.6-0.8-0.3-1.3c0.3-0.4 0.9-0.5 1.3-0.3z"></path> <path d="m17 22c0.5 0.3 0.6 0.8 0.3 1.3s-0.8 0.6-1.3 0.4c-0.5-0.3-0.6-0.8-0.3-1.3s0.8-0.7 1.3-0.4z"></path> <path d="m15.8 22c0.5 0.3 0.6 0.8 0.4 1.3-0.3 0.5-0.8 0.6-1.3 0.4-0.5-0.3-0.6-0.8-0.3-1.3 0.1-0.5 0.7-0.7 1.2-0.4z"></path> <path d="m16.1 19.6c0.5 0.3 0.6 0.8 0.4 1.3-0.3 0.5-0.8 0.6-1.3 0.3s-0.6-0.8-0.3-1.3c0.2-0.4 0.8-0.5 1.2-0.3z"></path> <path d="m13.6 20.4c0.4 0.3 0.6 0.9 0.3 1.3-0.3 0.5-0.8 0.6-1.3 0.4-0.5-0.3-0.6-0.8-0.3-1.3s0.9-0.6 1.3-0.4z"></path> <path d="m49.2 44.5c0.4 0.3 0.5 0.9 0.1 1.3-0.3 0.5-0.9 0.5-1.3 0.2s-0.5-0.9-0.1-1.3c0.3-0.5 0.9-0.5 1.3-0.2z"></path> <ellipse transform="matrix(.6416 -.7671 .7671 .6416 -8.7045 21.353)" cx="18.5" cy="20" rx=".9" ry=".9"></ellipse> <path d="m18.9 17.1c0.4 0.3 0.5 0.9 0.1 1.3-0.3 0.4-0.9 0.5-1.3 0.1-0.4-0.3-0.5-0.9-0.1-1.3 0.3-0.4 0.9-0.4 1.3-0.1z"></path> <ellipse transform="matrix(.6421 -.7666 .7666 .6421 -8.1819 19.017)" cx="16.3" cy="18.3" rx=".9" ry="1"></ellipse> <path d="m46.9 47.1c0.3 0.4 0.3 1-0.1 1.3s-1 0.3-1.3-0.1-0.3-1 0.1-1.3c0.3-0.4 0.9-0.3 1.3 0.1z"></path> <path d="m21.6 17c0.3 0.4 0.3 1-0.1 1.3s-1 0.3-1.3-0.1-0.3-1 0.1-1.3c0.4-0.4 1-0.3 1.3 0.1z"></path> <path d="m44.2 49.2c0.3 0.5 0.1 1-0.4 1.3s-1 0.1-1.3-0.3c-0.3-0.5-0.1-1 0.3-1.3 0.5-0.4 1.1-0.2 1.4 0.3z"></path> <ellipse transform="matrix(.8672 -.4979 .4979 .8672 -18.986 28.791)" cx="44.5" cy="50" rx=".9" ry=".9"></ellipse> <path d="m24.5 15.1c0.3 0.5 0.1 1-0.3 1.3-0.5 0.3-1 0.1-1.3-0.3-0.3-0.5-0.1-1 0.3-1.3 0.5-0.3 1.1-0.1 1.3 0.3z"></path> <ellipse transform="matrix(.9395 -.3427 .3427 .9395 -15.081 16.876)" cx="40.2" cy="51.1" rx=".9" ry=".9"></ellipse> <path d="m27.7 13.8c0.2 0.5-0.1 1-0.6 1.2s-1-0.1-1.2-0.6 0.1-1 0.6-1.2c0.5-0.1 1 0.2 1.2 0.6z"></path> <path d="m37.9 51.8c0.1 0.5-0.3 1-0.8 1.1s-1-0.2-1.1-0.8c-0.1-0.5 0.3-1 0.8-1.1s1 0.3 1.1 0.8z"></path> <path d="m36.4 53.5c0.1 0.5-0.3 1-0.8 1.1s-1-0.3-1.1-0.8 0.2-1 0.8-1.1c0.5-0.1 1 0.2 1.1 0.8z"></path> <path d="m38.1 55.1c0.1 0.5-0.3 1-0.8 1.1s-1-0.3-1.1-0.8 0.3-1 0.8-1.1c0.5 0 1 0.3 1.1 0.8z"></path> <path d="m39.9 56.5c0.1 0.5-0.3 1-0.8 1.1s-1-0.3-1.1-0.8 0.3-1 0.8-1.1 1 0.3 1.1 0.8z"></path> <ellipse transform="matrix(.985 -.1725 .1725 .985 -9.0139 8.2904)" cx="43.2" cy="56" rx="1" ry=".9"></ellipse> <path d="m5.5 34.2c0.1 0.5-0.3 1-0.8 1.1s-1-0.3-1.1-0.8 0.3-1 0.8-1.1 1 0.3 1.1 0.8z"></path> <path d="m5.5 39.5c0.1 0.5-0.3 1-0.8 1.1s-1-0.3-1.1-0.8 0.3-1 0.8-1.1 1 0.2 1.1 0.8z"></path> <path d="m35.2 60c0.1 0.5-0.3 1-0.8 1.1s-1-0.3-1.1-0.8 0.3-1 0.8-1.1 1 0.3 1.1 0.8z"></path> <ellipse transform="matrix(.9848 -.1737 .1737 .9848 -1.1127 9.4796)" cx="53.6" cy="11.1" rx=".9" ry="1"></ellipse> <ellipse transform="matrix(.985 -.1727 .1727 .985 -2.1975 1.5302)" cx="7.7" cy="13.4" rx=".9" ry=".9"></ellipse> <path d="m11.7 13.1c0.1 0.5-0.3 1-0.8 1.1s-1-0.3-1.1-0.8 0.2-1 0.8-1.1c0.5-0.1 1 0.3 1.1 0.8z"></path> <path d="M15,9.5c0.1,0.5-0.3,1-0.8,1.1s-1-0.3-1.1-0.8s0.3-1,0.8-1.1C14.5,8.7,15,9,15,9.5z"></path> <ellipse transform="matrix(.9848 -.1737 .1737 .9848 -9.0258 6.6542)" cx="33.5" cy="54.9" rx=".9" ry="1"></ellipse> <path d="m32.2 53.6c0.1 0.5-0.3 1-0.8 1.1s-1-0.3-1.1-0.8 0.3-1 0.8-1.1c0.6 0 1.1 0.3 1.1 0.8z"></path> <path d="m29.6 54.2c0.1 0.5-0.3 1-0.8 1.1s-1-0.3-1.1-0.8 0.3-1 0.8-1.1 1 0.3 1.1 0.8z"></path> <ellipse transform="matrix(.985 -.1727 .1727 .985 -8.7839 5.4449)" cx="26.9" cy="53.2" rx=".9" ry="1"></ellipse> <path d="m25.5 52.8c0.1 0.5-0.3 1-0.8 1.1s-1-0.2-1.1-0.8c-0.1-0.5 0.3-1 0.8-1.1 0.5 0 1 0.3 1.1 0.8z"></path> <path d="m22.9 53.8c0.1 0.5-0.3 1-0.8 1.1s-1-0.3-1.1-0.8 0.3-1 0.8-1.1c0.5 0 1 0.3 1.1 0.8z"></path> <path d="m25.9 55.7c0.1 0.5-0.3 1-0.8 1.1s-1-0.3-1.1-0.8 0.3-1 0.8-1.1 1 0.3 1.1 0.8z"></path> <path d="m16.5 50.3c0.1 0.5-0.2 1-0.8 1.1-0.5 0.1-1-0.3-1.1-0.8s0.3-1 0.8-1.1 1 0.3 1.1 0.8z"></path> <path d="m15 16.1c0.1 0.5-0.3 1-0.8 1.1s-1-0.3-1.1-0.8 0.3-1 0.8-1.1c0.6-0.1 1.1 0.3 1.1 0.8z"></path> <path d="m20.7 11.2c0.1 0.5-0.3 1-0.8 1.1s-1-0.3-1.1-0.8 0.3-1 0.8-1.1 1 0.3 1.1 0.8z"></path> <path d="m24.5 9.9c0.1 0.5-0.3 1-0.8 1.1s-1-0.3-1.1-0.8 0.3-1 0.8-1.1c0.5 0 1 0.3 1.1 0.8z"></path> <path d="m25 5.4c0.1 0.5-0.3 1-0.8 1.1s-1-0.3-1.1-0.8 0.3-1 0.8-1.1c0.5 0 1 0.3 1.1 0.8z"></path> <path d="m61.8 27.7c0.1 0.5-0.2 1-0.8 1.1-0.5 0.1-1-0.3-1.1-0.8s0.2-1 0.8-1.1c0.5 0 1 0.3 1.1 0.8z"></path> <path d="m29.6 7c0.1 0.5-0.3 1-0.8 1.1s-1-0.3-1.1-0.8 0.3-1 0.8-1.1 1 0.3 1.1 0.8z"></path> <path d="m33.9 8c0.1 0.5-0.3 1-0.8 1.1s-1-0.3-1.1-0.8 0.3-1 0.8-1.1 1 0.3 1.1 0.8z"></path> <path d="m37.5 8.2c0.1 0.5-0.2 1-0.8 1.1-0.5 0.1-1-0.3-1.1-0.8s0.3-1 0.8-1.1 1 0.3 1.1 0.8z"></path> <ellipse transform="matrix(.985 -.1725 .1725 .985 -.4249 6.7284)" cx="38.5" cy="5.8" rx="1" ry=".9"></ellipse> <ellipse transform="matrix(.9849 -.1729 .1729 .9849 -8.4532 4.9505)" cx="24.2" cy="51" rx=".9" ry="1"></ellipse> <path d="m22.3 51.1c0.1 0.5-0.3 1-0.8 1.1s-1-0.2-1.1-0.8c-0.1-0.5 0.3-1 0.8-1.1s1 0.3 1.1 0.8z"></path> <path d="m20 51.9c0.1 0.5-0.2 1-0.8 1.1-0.5 0.1-1-0.3-1.1-0.8s0.3-1 0.8-1.1 1 0.2 1.1 0.8z"></path> <path d="m20.8 49.3c0.1 0.5-0.3 1-0.8 1.1s-1-0.3-1.1-0.8 0.3-1 0.8-1.1c0.5 0 1 0.3 1.1 0.8z"></path> <ellipse transform="matrix(.985 -.1727 .1727 .985 -7.9147 3.837)" cx="18.1" cy="47.4" rx=".9" ry=".9"></ellipse> <path d="m16.5 46.5c0.1 0.5-0.2 1-0.8 1.1-0.5 0.1-1-0.3-1.1-0.8s0.3-1 0.8-1.1 1 0.3 1.1 0.8z"></path> <ellipse transform="matrix(.985 -.1724 .1724 .985 -7.3998 3.3871)" cx="15.8" cy="44.3" rx="1" ry="1"></ellipse> <ellipse transform="matrix(.9848 -.1736 .1736 .9848 -6.9855 3.1311)" cx="14.4" cy="41.5" rx="1" ry=".9"></ellipse> <path d="m14.1 43.6c0.1 0.5-0.3 1-0.8 1.1s-1-0.3-1.1-0.8 0.3-1 0.8-1.1 1 0.2 1.1 0.8z"></path> <path d="m13.6 39.4c0.1 0.5-0.2 1-0.8 1.1-0.5 0.1-1-0.3-1.1-0.8s0.3-1 0.8-1.1 1 0.2 1.1 0.8z"></path> <path d="m10 39.5c0.1 0.5-0.3 1-0.8 1.1s-1-0.3-1.1-0.8 0.3-1 0.8-1.1 1 0.2 1.1 0.8z"></path> <path d="m10.6 42.9c0.1 0.5-0.3 1-0.8 1.1s-1-0.2-1.1-0.8c-0.1-0.5 0.3-1 0.8-1.1 0.6-0.1 1.1 0.3 1.1 0.8z"></path> <path d="m13.7 45.7c0.1 0.5-0.3 1-0.8 1.1s-1-0.3-1.1-0.8 0.3-1 0.8-1.1 1 0.3 1.1 0.8z"></path> <ellipse transform="matrix(.985 -.1727 .1727 .985 -8.0283 2.3331)" cx="9.4" cy="47.3" rx=".9" ry=".9"></ellipse> <path d="m13 37.1c0.1 0.5-0.3 1-0.8 1.1s-1-0.3-1.1-0.8 0.3-1 0.8-1.1 1 0.3 1.1 0.8z"></path> <path d="m13.1 34.3c0.1 0.5-0.3 1-0.8 1.1s-1-0.3-1.1-0.8 0.3-1 0.8-1.1 1 0.3 1.1 0.8z"></path> <path d="m9.8 34.8c0.1 0.5-0.2 1-0.8 1.1-0.5 0.1-1-0.3-1.1-0.8s0.3-1 0.8-1.1 1 0.2 1.1 0.8z"></path> <path d="m7.3 31.1c0.1 0.5-0.3 1-0.8 1.1s-1-0.3-1.1-0.8 0.2-1 0.8-1.1c0.5 0 1 0.3 1.1 0.8z"></path> <path d="m31.7 56.7c0.1 0.5-0.3 1-0.8 1.1s-1-0.2-1.1-0.8c-0.1-0.5 0.3-1 0.8-1.1 0.5 0 1 0.3 1.1 0.8z"></path> <ellipse transform="matrix(.9845 -.1755 .1755 .9845 -8.8296 7.5732)" cx="38.4" cy="53.7" rx="1" ry="1"></ellipse> <path d="m42.2 53.2c0.1 0.5-0.3 1-0.8 1.1s-1-0.3-1.1-0.8 0.3-1 0.8-1.1c0.5 0 1 0.3 1.1 0.8z"></path> <path d="m44.3 52.1c0.1 0.5-0.3 1-0.8 1.1s-1-0.3-1.1-0.8 0.3-1 0.8-1.1 1 0.2 1.1 0.8z"></path> <path d="m47.3 52c0.1 0.5-0.3 1-0.8 1.1s-1-0.3-1.1-0.8 0.3-1 0.8-1.1 1 0.2 1.1 0.8z"></path> <path d="m48.8 49.4c0.1 0.5-0.3 1-0.8 1.1s-1-0.3-1.1-0.8 0.3-1 0.8-1.1c0.5 0 1 0.3 1.1 0.8z"></path> <ellipse transform="matrix(.9847 -.1745 .1745 .9847 -7.6244 9.4796)" cx="50.1" cy="48.1" rx="1" ry="1"></ellipse> <path d="m52 45.1c0.1 0.5-0.3 1-0.8 1.1s-1-0.3-1.1-0.8 0.2-1 0.8-1.1c0.5 0 1 0.3 1.1 0.8z"></path> <ellipse transform="matrix(.9844 -.1757 .1757 .9844 -7.004 10.094)" cx="53.5" cy="44.6" rx="1" ry="1"></ellipse> <path d="m53.6 42.2c0.1 0.5-0.3 1-0.8 1.1s-1-0.3-1.1-0.8 0.3-1 0.8-1.1c0.6-0.1 1.1 0.3 1.1 0.8z"></path> <path d="m55 40.1c0.1 0.5-0.3 1-0.8 1.1s-1-0.2-1.1-0.8c-0.1-0.5 0.2-1 0.8-1.1 0.5 0 1 0.3 1.1 0.8z"></path> <ellipse transform="matrix(.9848 -.1737 .1737 .9848 -5.7682 10.08)" cx="54.7" cy="38" rx=".9" ry=".9"></ellipse> <path d="m56.5 42.2c0.1 0.5-0.3 1-0.8 1.1s-1-0.3-1.1-0.8 0.2-1 0.8-1.1c0.5-0.1 1 0.3 1.1 0.8z"></path> <ellipse transform="matrix(.9851 -.172 .172 .9851 -5.1512 9.9416)" cx="54.8" cy="34.7" rx="1" ry="1"></ellipse> <path d="m57.2 36.2c0.1 0.5-0.3 1-0.8 1.1s-1-0.3-1.1-0.8 0.3-1 0.8-1.1c0.5 0 1 0.3 1.1 0.8z"></path> <ellipse transform="matrix(.9847 -.1741 .1741 .9847 -4.5747 10.033)" cx="54.9" cy="31.1" rx="1" ry="1"></ellipse> <path d="m57.2 33c0.1 0.5-0.3 1-0.8 1.1s-1-0.3-1.1-0.8 0.3-1 0.8-1.1 1 0.3 1.1 0.8z"></path> <path d="m59.1 31.9c0.1 0.5-0.2 1-0.8 1.1-0.5 0.1-1-0.3-1.1-0.8s0.3-1 0.8-1.1c0.5 0 1 0.3 1.1 0.8z"></path> <ellipse transform="matrix(.9847 -.1744 .1744 .9847 -4.319 10.449)" cx="57.3" cy="29.8" rx=".9" ry="1"></ellipse> <ellipse transform="matrix(.985 -.1726 .1726 .985 -3.9871 9.964)" cx="55.3" cy="27.9" rx=".9" ry=".9"></ellipse> <path d="m55.1 25.3c0.1 0.5-0.3 1-0.8 1.1s-1-0.2-1.1-0.8c-0.1-0.5 0.3-1 0.8-1.1s1 0.3 1.1 0.8z"></path> <ellipse transform="matrix(.9844 -.1761 .1761 .9844 -3.7041 10.462)" cx="57.1" cy="26.1" rx=".9" ry="1"></ellipse> <path d="m53.6 23.4c0.1 0.5-0.3 1-0.8 1.1s-1-0.3-1.1-0.8 0.3-1 0.8-1.1c0.6 0 1.1 0.3 1.1 0.8z"></path> <path d="m52.7 21.1c0.1 0.5-0.3 1-0.8 1.1s-1-0.3-1.1-0.8 0.3-1 0.8-1.1 1 0.3 1.1 0.8z"></path> <path d="m55.2 21.3c0.1 0.5-0.3 1-0.8 1.1s-1-0.3-1.1-0.8 0.3-1 0.8-1.1 1 0.3 1.1 0.8z"></path> <path d="m54.1 19c0.1 0.5-0.2 1-0.8 1.1-0.5 0.1-1-0.3-1.1-0.8s0.2-1 0.8-1.1c0.5 0 1 0.3 1.1 0.8z"></path> <ellipse transform="matrix(.985 -.1727 .1727 .985 -2.5702 9.046)" cx="50.7" cy="19.3" rx=".9" ry=".9"></ellipse> <path d="m49.7 17.2c0.1 0.5-0.3 1-0.8 1.1s-1-0.3-1.1-0.8 0.3-1 0.8-1.1c0.6-0.1 1 0.3 1.1 0.8z"></path> <path d="m52 15.2c0.1 0.5-0.3 1-0.8 1.1s-1-0.3-1.1-0.8 0.2-1 0.8-1.1c0.5 0 1 0.3 1.1 0.8z"></path> <ellipse transform="matrix(.9847 -.174 .174 .9847 -1.9122 9.777)" cx="54.8" cy="15.8" rx="1" ry="1"></ellipse> <path d="m48.1 15.4c0.1 0.5-0.3 1-0.8 1.1s-1-0.3-1.1-0.8 0.2-1 0.8-1.1c0.5-0.1 1 0.3 1.1 0.8z"></path> <path d="m45.9 13.7c0.1 0.5-0.2 1-0.8 1.1-0.5 0.1-1-0.3-1.1-0.8s0.3-1 0.8-1.1c0.5 0 1 0.3 1.1 0.8z"></path> <path d="m42.7 12.5c0.1 0.5-0.2 1-0.8 1.1-0.5 0.1-1-0.3-1.1-0.8s0.3-1 0.8-1.1 1 0.3 1.1 0.8z"></path> <ellipse transform="matrix(.9848 -.1739 .1739 .9848 -1.2615 7.804)" cx="43.9" cy="11.1" rx=".9" ry=".9"></ellipse> <path d="m41.5 8.6c0.1 0.5-0.3 1-0.8 1.1s-1-0.3-1.1-0.8 0.2-1 0.8-1.1c0.5-0.1 1 0.3 1.1 0.8z"></path> <path d="m40.5 11.1c0.1 0.5-0.3 1-0.8 1.1s-1-0.3-1.1-0.8 0.3-1 0.8-1.1 1 0.3 1.1 0.8z"></path> <path d="m37.4 10.8c0.1 0.5-0.3 1-0.8 1.1s-1-0.3-1.1-0.8 0.3-1 0.8-1.1c0.5 0 1 0.3 1.1 0.8z"></path> <path d="m48.1 13c0.1 0.5-0.3 1-0.8 1.1s-1-0.3-1.1-0.8 0.2-1 0.8-1.1c0.5-0.1 1 0.3 1.1 0.8z"></path> <path d="m35.9 9.5c0.1 0.5-0.3 1-0.8 1.1s-1-0.2-1.1-0.8c-0.1-0.5 0.2-1 0.8-1.1 0.5 0 1 0.3 1.1 0.8z"></path> <path d="m33.4 10.5c0.1 0.5-0.2 1-0.8 1.1-0.5 0.1-1-0.3-1.1-0.8s0.3-1 0.8-1.1c0.5 0 1 0.3 1.1 0.8z"></path> <path d="m31.6 11.8c0.1 0.5-0.3 1-0.8 1.1s-1-0.3-1.1-0.8 0.3-1 0.8-1.1 1 0.3 1.1 0.8z"></path> <path d="m31.8 8.8c0.1 0.5-0.3 1-0.8 1.1s-1-0.3-1.1-0.8 0.3-1 0.8-1.1 1 0.2 1.1 0.8z"></path> <ellipse transform="matrix(.985 -.1725 .1725 .985 -1.3943 4.7619)" cx="26.7" cy="10.4" rx="1" ry=".9"></ellipse> <ellipse transform="matrix(.985 -.1726 .1726 .985 -1.7025 5.0159)" cx="28" cy="12.3" rx="1" ry="1"></ellipse> <path d="m25.6 12.2c0.1 0.5-0.3 1-0.8 1.1s-1-0.3-1.1-0.8 0.3-1 0.8-1.1 1 0.3 1.1 0.8z"></path> <path d="m23.1 11.5c0.1 0.5-0.3 1-0.8 1.1s-1-0.3-1.1-0.8 0.3-1 0.8-1.1 1 0.3 1.1 0.8z"></path> <path d="m22.7 13.9c0.1 0.5-0.3 1-0.8 1.1s-1-0.3-1.1-0.8 0.2-1 0.8-1.1c0.5 0 1 0.3 1.1 0.8z"></path> <ellipse transform="matrix(.9845 -.1755 .1755 .9845 -2.4553 3.6317)" cx="19.3" cy="15.7" rx="1" ry=".9"></ellipse> <path d="m18.4 15.4c0.1 0.5-0.3 1-0.8 1.1s-1-0.3-1.1-0.8 0.3-1 0.8-1.1 1 0.3 1.1 0.8z"></path> <path d="m19 13c0.1 0.5-0.3 1-0.8 1.1s-1-0.3-1.1-0.8 0.2-1 0.8-1.1c0.5-0.1 1 0.3 1.1 0.8z"></path> <ellipse transform="matrix(.9851 -.1721 .1721 .9851 -1.9727 2.8401)" cx="15.4" cy="12.8" rx="1" ry=".9"></ellipse> <path d="m31.1 13.1c0.1 0.5-0.3 1-0.8 1.1s-1-0.3-1.1-0.8 0.3-1 0.8-1.1c0.5 0 1 0.3 1.1 0.8z"></path> </g> <g fill="#fff"> <path d="m85.6 26.5c-2.2 0-4.2 1.1-5.2 2.8-1-1.8-2.9-2.8-5.2-2.8-1.7 0-3.1 0.6-4.2 1.7v-1c0-0.2-0.2-0.4-0.5-0.4h-1.3c-0.2 0-0.4 0.2-0.4 0.4v14.1c0 0.3 0.2 0.5 0.4 0.5h1.4c0.3 0 0.4-0.2 0.4-0.5v-8.3c0-2.5 1.7-4.2 4.1-4.2s4.1 1.7 4.1 4.2v8.3c0 0.3 0.2 0.5 0.5 0.5h1.3c0.2 0 0.5-0.2 0.5-0.5v-8.3c0-2.5 1.7-4.2 4.1-4.2s4 1.7 4 4.2v8.4c0 0.3 0.2 0.5 0.5 0.5h1.4c0.2 0 0.5-0.2 0.5-0.5v-8.4c-0.1-3.9-2.7-6.5-6.4-6.5z"></path> <path d="m103.2 39.5c-0.1-0.1-0.1-0.2-0.3-0.2h-0.4c-0.7 0.3-1.4 0.5-2 0.5-1.6 0-2.1-0.7-2.1-2.8v-8.1h4.3c0.3 0 0.5-0.2 0.5-0.5v-1.2c0-0.2-0.2-0.4-0.5-0.4h-4.3v-3.8c0-0.1-0.1-0.2-0.1-0.3-0.1-0.1-0.2-0.1-0.4-0.1l-1.4 0.1c-0.2 0-0.4 0.2-0.4 0.4v3.7h-2.5c-0.3 0-0.5 0.2-0.5 0.4v1.2c0 0.3 0.2 0.5 0.5 0.5h2.5v8.1c0 3.4 1.4 5 4.4 5 0.9 0 1.8-0.2 2.8-0.8 0.2-0.1 0.3-0.4 0.2-0.6l-0.3-1.1z"></path> <path d="m111.7 33.1l-0.5-0.1c-2-0.4-3.7-0.8-3.7-2.1 0-0.4 0.1-0.8 0.4-1.1 0.6-0.6 1.8-1 3.2-1h0.1c1.5 0 2.8 0.2 4.1 1.4 0.2 0.2 0.5 0.1 0.6 0l0.9-0.9c0.2-0.2 0.2-0.5 0-0.6-1.4-1.3-3.3-2-5.5-2h-0.1c-2 0-3.8 0.6-4.9 1.6-0.7 0.7-1.1 1.7-1.1 2.7 0 3.3 3.3 3.8 5.9 4.2s4.2 0.8 4.2 2.3c-0.1 2-2.8 2.2-3.9 2.2-2 0-3.8-0.8-4.8-2.2-0.1-0.1-0.2-0.2-0.3-0.2s-0.3 0-0.4 0.1l-1 0.9c-0.2 0.2-0.2 0.4-0.1 0.6 1.2 1.9 3.7 3 6.5 3 1.4 0 6.1-0.3 6.2-4.4 0.2-3.4-3.2-4-5.8-4.4z"></path> </g> </svg> 