<svg id="Layer_1" data-name="Layer 1" xmlns="http://www.w3.org/2000/svg" width="119.28" height="100" viewBox="0 0 119.28 100"><defs><style>.cls-1{fill:#fff;}</style></defs><path class="cls-1" d="M35.6,40.92c.1-.08.16-.12.15-.14C29.82,43,24.22,47.63,24.6,50.9c.19,1.66,1.62,2.46,3.1,2.81L29.08,52c-1.17,0-3.07-.23-3.21-1.45C25.52,47.54,31.15,43.15,35.6,40.92Z"/><path class="cls-1" d="M34.19,53.49a.55.55,0,0,1-.32.22C47.79,52,62.18,41.55,61.35,32.42c-.47-5.49-5.8-8.79-13.59-8.73S31.46,28,32,32.47a3,3,0,0,0,2.7,2.62,2.29,2.29,0,0,1-1.11-1.76c-.34-2.91,7.85-8.76,16.4-8.67,4.27,0,9,2.15,9.44,5.91.94,8.23-12.12,17.89-24,20.69C34.86,52.23,34.35,53.17,34.19,53.49Z"/><path class="cls-1" d="M65.94,34.35a7.74,7.74,0,0,1,2-1.92.81.81,0,0,1,.61,0c.11,0-.11-.45-.4-.74a2.43,2.43,0,0,0-1.79-.93c-.72.24-1.61,2.15-1.49,3C64.91,34.27,65.59,34.88,65.94,34.35Z"/><path class="cls-1" d="M64.4,38.53c.24,0,.4.17.39.06a3,3,0,0,0-2.05-1.92.56.56,0,0,0-.42.18c-1.67,1.51-5.17,7.94-5,9.65a2.33,2.33,0,0,0,1.35,1.41,2.07,2.07,0,0,0,.35,0c1.16-.1,3.28-2.17,5.23-4.36a10.14,10.14,0,0,0-.33,3.25c0,.23.79,1.17,1.37,1.14.9,0,8.34-7.78,10.71-13.07.14-.32,0-.29-.18-.06-2.19,2.94-7.17,9-9.56,10.92a17.38,17.38,0,0,1,1.19-4.3c.81-1.86,1.54-3.36,2.1-3.33.24,0,.27.12.29,0a2.8,2.8,0,0,0-2-1.9.49.49,0,0,0-.35.17,13.43,13.43,0,0,0-2.36,4.49c-.2.51-.36,1-.5,1.5-1.67,1.74-3.69,3.6-4.81,3.91C60,45.14,63.2,38.42,64.4,38.53Z"/><path class="cls-1" d="M79.19,34.45a7.45,7.45,0,0,1,2-1.92.81.81,0,0,1,.61,0c.11,0-.11-.45-.41-.74a2.47,2.47,0,0,0-1.79-.94c-.71.24-1.61,2.15-1.49,3C78.15,34.39,78.85,35,79.19,34.45Z"/><path class="cls-1" d="M102.1,40.07c.08-.09-.14-.24-.22-.18-2.65,2.49-7.5,6.61-9.61,6.61-.64,0-.92-.2-.94-.55a4.62,4.62,0,0,1,.9-2.34c3.24-.1,8.33-4.36,8.11-6.2-.09-.83-1.5-1.49-1.93-1.49a10.19,10.19,0,0,0-5.91,3A12.51,12.51,0,0,0,89.08,44a1.53,1.53,0,0,1-.07.29,9.24,9.24,0,0,1-2.77,1.93c-.1-1.38,3.69-7.62,4.34-8.21.35-.32-.76-1.91-1.46-1.91-1,0-5.63,4-8.52,7.26A9.92,9.92,0,0,0,79.31,45a47.34,47.34,0,0,1,2.78-4.84c.73-1.16,1.66-2.39,2-2.37.24,0,.37.17.36.06a2.82,2.82,0,0,0-2-1.88.47.47,0,0,0-.35.15,16.86,16.86,0,0,0-2.66,3.67c-.56.92-1.12,2-1.64,3.06-1.57,1.58-3.3,3.13-4.31,3.41.21-1.21,3.43-7.94,4.63-7.82.24,0,.4.17.38.05a2.92,2.92,0,0,0-2-1.9.52.52,0,0,0-.41.17c-1.67,1.51-5.17,8-5,9.66a2.31,2.31,0,0,0,1.35,1.4,1,1,0,0,0,.35,0c1-.08,2.65-1.58,4.33-3.37a3.88,3.88,0,0,0-.46,2.15c.32.85,1.11,1.78,2,1.58-.45-.21-.34-1,.33-2A12.34,12.34,0,0,1,79.83,45c1.88-2.37,5.73-5.94,8-7-1.35,1.39-4.16,6.31-4,8a2.28,2.28,0,0,0,.66,1.14,1.59,1.59,0,0,0,1,.66c.78,0,2-1,3.39-2.3a3.87,3.87,0,0,0,0,.48,2.74,2.74,0,0,0,2.27,1.85C95,47.78,100.17,42.14,102.1,40.07Zm-2.78-3.26c0,1.11-4.32,5.91-6.81,6.2.8-1.55,3.72-5.12,6.82-6.2Z"/><path class="cls-1" d="M68.14,51.36c1.49-2,2.46-3.13,3.29-2.77.56.32-.74-1.41-2.42-1.41a1.81,1.81,0,0,0-1.05.56A21.78,21.78,0,0,0,64.79,52a88.37,88.37,0,0,0-4.91,8.95,1.44,1.44,0,0,0-1.19.83A2.41,2.41,0,0,0,58.92,63c-.19.49-.39,1-.56,1.46a13.38,13.38,0,0,1-3.89,3,2.77,2.77,0,0,1,.18-1c.65-1.9,2.9-5.11,3.08-4.82.07-.36-1.11-2-1.66-1.67a26.63,26.63,0,0,0-2.83,2.78,38,38,0,0,1-6,4.62.23.23,0,0,1-.2,0c-.28-.15,1.48-3.89,4-6.26,1.7-1.63,3.68-2.87,5.35-3a1.35,1.35,0,0,1,1.55,1.09c0,.06,0,.12,0,.18a2.05,2.05,0,0,1-.2,1.06s0,.06.09,0a2.23,2.23,0,0,0,.39-1.39c-.16-1.38-1.66-1.84-2.77-1.84-5.34,0-11.24,6.62-10.87,9.82a3.6,3.6,0,0,0,1.5,2,1.07,1.07,0,0,0,.27.09c1.21,0,6.31-5,7.08-5.87a11.27,11.27,0,0,0-1.32,3.19A4.65,4.65,0,0,0,52,67.56a2.28,2.28,0,0,0,1.11,1.38,1,1,0,0,0,.51.17c.95,0,2.6-1.45,4.27-3.23a4.05,4.05,0,0,0-.17,2,4.13,4.13,0,0,0,1.15,1.17,1,1,0,0,0,1,.14c-1.32-.14,0-2.41.56-3.74,2.36,3.43,6.66,7.07,10.42,7.06a5.06,5.06,0,0,0,3.79-1.67c.12-.15-.11-.18-.19-.09a4.35,4.35,0,0,1-2.86,1.07c-3.8,0-8.14-4.44-9.75-7.73,3.25.28,8.74-3.54,8.49-5.73-.07-.62-1-1.85-1.6-1.85-1.43,0-4.59,2.78-6.61,5.25a84.85,84.85,0,0,1,4.56-8.18S67.87,51.75,68.14,51.36Zm-.35,6.42c-.66,1.77-3.58,5.56-6.11,5.94a3,3,0,0,1-.24-.58C61.71,62.71,65.85,58.27,67.79,57.78Z"/><path class="cls-1" d="M96.4,51.76c-.73.24-1.61,2.15-1.49,3,.1.56.77,1.14,1.11.61a7.61,7.61,0,0,1,2-1.92.81.81,0,0,1,.61,0c.11,0-.11-.45-.41-.74S97.06,51.67,96.4,51.76Z"/><path class="cls-1" d="M116.62,60.29A16.7,16.7,0,0,0,114,62.68a37.24,37.24,0,0,1-3.39,2.87,8.94,8.94,0,0,1-2.38,1.51c-.32-.24,1.39-3.89,3.89-6.26,1.72-1.63,3.67-2.86,5.35-3A1.34,1.34,0,0,1,119,58.91a1.1,1.1,0,0,1,0,.18,2.28,2.28,0,0,1-.17,1.06s0,.06.06,0a2.45,2.45,0,0,0,.4-1.39,2,2,0,0,0-1.61-1.66c.32,0,.63,0,.65-.18.16-1,.24-2,.33-2.91,0-.47.06-.95.09-1.43l0-.72v-.71a51.37,51.37,0,0,0-.18-5.55A49.35,49.35,0,0,0,113,26.71a50.24,50.24,0,0,0-9.06-12.17,48.15,48.15,0,0,0-7.62-6.11L95,7.63l-.93-.56-.76-.44.74.48.92.55,1.23.84c.92.64,2,1.47,3.29,2.5.31.26.63.56,1,.82a13.37,13.37,0,0,1,1,.9l1.06,1,1.07,1.09A49.5,49.5,0,0,1,112.28,27a48.11,48.11,0,0,1,3.34,8.58,48.68,48.68,0,0,1,1.86,15.47v.69l0,.7c0,.46-.07.93-.11,1.4-.12.94-.21,1.88-.37,2.82,0,.12.08.21.23.27a4,4,0,0,0-.69-.05c-4.74,0-9.95,5.25-10.77,8.67a8.15,8.15,0,0,1-2.46,1.64c-.1-1.39,3.7-7.62,4.35-8.21.35-.33-.76-1.91-1.46-1.91-1,0-5.64,4-8.52,7.25A10.53,10.53,0,0,0,96.33,66a49.44,49.44,0,0,1,2.78-4.85c.74-1.15,1.67-2.38,2.06-2.36.24,0,.36.17.35.06a2.77,2.77,0,0,0-2-1.88.53.53,0,0,0-.36.15,17.39,17.39,0,0,0-2.66,3.66c-.55.93-1.11,2-1.63,3.07-1.57,1.58-3.3,3.13-4.31,3.41.21-1.21,3.43-7.94,4.63-7.82.23,0,.4.17.38,0a2.93,2.93,0,0,0-2-1.91.55.55,0,0,0-.41.18c-1.19,1.07-3.3,4.63-4.35,7.22a10.87,10.87,0,0,1-3.18,2.31c-.1-1.39,3.69-7.62,4.34-8.21.34-.33-.76-1.91-1.46-1.91-1,0-5.64,4-8.52,7.22a9.92,9.92,0,0,0-1.29,1.67,45.69,45.69,0,0,1,2.78-4.85c.73-1.15,1.66-2.38,2-2.36.23,0,.37.18.35.06a2.83,2.83,0,0,0-2-1.88.51.51,0,0,0-.36.15,17.2,17.2,0,0,0-2.66,3.67c-.43.73-.9,1.58-1.32,2.43-2.54,2.14-5.56,4.34-7.08,4.34-.64,0-.93-.2-.93-.55a4.45,4.45,0,0,1,.89-2.33c3.24-.11,8.33-4.37,8.11-6.2-.09-.82-1.5-1.49-1.93-1.49a10.26,10.26,0,0,0-5.91,3,12.67,12.67,0,0,0-3.42,5.11,5.13,5.13,0,0,0-.19,2,2.74,2.74,0,0,0,2.27,1.84c2.39,0,5.25-2.16,7.54-4.3l-.29.7a5,5,0,0,0-.55,2.37c.32.85,1.11,1.79,2,1.58-.46-.21-.35-1,.32-2a12.34,12.34,0,0,1,.91-1.24c1.88-2.37,5.74-5.94,8-7-1.35,1.39-4.16,6.32-4,8a2.28,2.28,0,0,0,.66,1.14,1.59,1.59,0,0,0,1,.62c.79,0,2.07-1,3.44-2.35a2.78,2.78,0,0,0-.11,1,2.31,2.31,0,0,0,1.3,1.48,1,1,0,0,0,.35,0c1-.08,2.66-1.58,4.33-3.38a4.12,4.12,0,0,0-.46,2.15c.33.85,1.11,1.79,2,1.58-.46-.2-.35-1,.33-1.94a10.5,10.5,0,0,1,.92-1.19c1.87-2.36,5.73-6,8-7-1.36,1.4-4.16,6.32-4,8a2.26,2.26,0,0,0,.65,1.14,1.53,1.53,0,0,0,1,.61c.72,0,1.86-.84,3.1-2h0a3.71,3.71,0,0,0,1.47,2,.64.64,0,0,0,.3.08c.61,0,2.18-1.27,3.68-2.58s2.91-2.77,3.3-3.16,2.15-2,2.13-2a79,79,0,0,1-7.74,15.44c-.6.89-2.71,3.79-3.69,5-.05.07-1.17,1.41-1.25,1.43a52.75,52.75,0,0,1-4.72,4.37,53,53,0,0,1-5.59,3.93,52.11,52.11,0,0,1-6.15,3.11,51.5,51.5,0,0,1-5.56,1.94h0c-35.89,7.57-53.42-18.2-51.9-34l.69.07h0c1,.08,1.91.2,2.7.32A12.11,12.11,0,0,0,32,67.9c.08.23.94,1.37,1.49,1.37.32,0,1.07-.74,1.89-1.51a46.17,46.17,0,0,0,4-4.85c-.56,1.6-1.12,3.69-.85,4.84.06.23.91,1.38,1.63,1.37,1.16,0,8.6-8.22,10.12-14,.12-.29.06-.29-.09-.05C47.93,59.52,44,65,40.56,67.23c-.16-.4.42-2.67,1.28-4.36s1.45-2.51,1.89-2.48.4.15.39.06a3.18,3.18,0,0,0-2.23-1.88.58.58,0,0,0-.38.15,14.58,14.58,0,0,0-1.9,3,25,25,0,0,1-5.34,5.61c0-1.67,2.11-5.66,3.13-7,.35-.48.67-.74.93-.74s.36.15.32.06a3,3,0,0,0-2.19-1.91.56.56,0,0,0-.38.17,9.27,9.27,0,0,0-1.82,2.65c-.29.55-.55,1.11-.84,1.73-.37-.1-.77-.19-1.17-.27h0L32,62c-.47-.08-1.22-.19-2-.29a41.63,41.63,0,0,1,3-7.78,40.18,40.18,0,0,1,3.53-5.56,2,2,0,0,1,1.28-.91,3.62,3.62,0,0,0-2.29-1.29c-.67,0-1.22.56-2.15,1.67-1.38,1.67-8.74,10.34-11.38,13.38h0c-3.85.18-14.31,1.08-13.89,3.5C8.23,66,9.9,66.86,9.86,66.3S13,63.46,20.64,62.57C16.87,66.4,9.14,75.79,2.93,75.82,1.69,75.82.71,75.33.58,74A1.61,1.61,0,0,1,1,72.92c-.49,0-1.07.77-.93,2A3.66,3.66,0,0,0,3.82,78c6.44,0,14.74-11.76,18.37-15.64,1.32-.13,2.65-.2,4-.2h1.32C25.57,79.63,45.36,107,81.81,98.38v0l.69-.19.21,0h0a55.07,55.07,0,0,0,5.45-1.93c8.29-3.47,15.42-9.72,20.55-16.56.67-.94,1.81-2.41,2.72-4h0a61.48,61.48,0,0,0,4.79-9,3.42,3.42,0,0,1,.26-.59l1.39-3.33c.38-1,1.11.1,1.23.19C119.14,62.62,117.49,59.86,116.62,60.29ZM77.37,58c-.05,1.11-4.32,5.91-6.81,6.22.79-1.57,3.72-5.14,6.81-6.22ZM26.49,61.25l-.84,0c-.8,0-1.59-.05-2.36,0,8.41-10.32,8.67-10.6,9-10.91-.37.6-.8,1.33-1.29,2.22-1.37,2.46-3.12,6-3.41,8.89Z"/><path class="cls-1" d="M62.57,15.78c-3.84.16-13.61,1-13.21,3.44.2,1.29,1.87,2.17,1.83,1.61s2.72-2.78,10.34-3.67c-1.06,1.19-3.65,4.14-6.39,7.22.56.24,1.11.5,1.56.73,3.54-4.22,6.37-7.73,6.82-8.21a35.24,35.24,0,0,1,4-.2h1.11c-1,2.88-2.37,8-1.71,10.78a2.69,2.69,0,0,0,2.25,1.7A4.25,4.25,0,0,0,72,27.67a7.37,7.37,0,0,1-2.42.71.37.37,0,0,1-.43-.32h0v0c-.42-1.94,1.35-8.61,2.28-11.2h0c1.63.12,3.24.35,4.28.51-2.31,2.15-3.86,5.32-3.58,6.72.13.67,1.34,2,1.88,1.93,1.55,0,6.62-5.76,7.51-6.6-1,2.65-1.32,4.18-1.2,4.75a2.78,2.78,0,0,0,1.44,1.48,1.34,1.34,0,0,0,1,.1,9.2,9.2,0,0,0,2.5-2.15v.1a3.87,3.87,0,0,0,1.67,1.9,1.4,1.4,0,0,0,.29.09c1.25,0,6.11-5.06,6.85-5.95A9.77,9.77,0,0,0,93,22.9a4.35,4.35,0,0,0,0,1.08,2.47,2.47,0,0,0,1.26,1.34,1.34,1.34,0,0,0,.55.16c1.8-.05,5.73-5,7.78-7.84.07-.09-.12-.32-.24-.17-1.52,1.73-5,5.81-6.8,6.39a2.8,2.8,0,0,1,.11-1c.55-1.88,2.6-5.11,2.81-4.83.05-.35-1.27-1.9-1.82-1.61a28,28,0,0,0-2.7,2.77c-1.3,1.32-4.91,4.36-5.83,4.7a.26.26,0,0,1-.21,0c-.3-.13,1.23-3.85,3.61-6.27C93.06,16,95,14.7,96.72,14.57a1.44,1.44,0,0,1,1.69,1.15.13.13,0,0,1,0,.06,1.89,1.89,0,0,1-.12,1s0,.06.1,0a2.05,2.05,0,0,0,.3-1.37c-.27-1.36-1.85-1.79-3-1.76-4.81.2-9.64,5.24-10.42,8.64a6.87,6.87,0,0,1-2.78,1.95,58,58,0,0,1,3.92-9.63c1-2.15,1.94-3.89,2.94-5.53s2.42-4.38,3.53-3.94C93.49,5.5,92,3.83,90.31,4a1.72,1.72,0,0,0-1,.61,14.89,14.89,0,0,0-2,2.7c-1.09,2-2.47,4.44-3.78,7.27a2.12,2.12,0,0,0-1.41-.46c-1.79.05-3.64,1-5.65,2.57-.21.15-.41.32-.61.49a29.24,29.24,0,0,0-4.33-.91c1.66-5.66,4.59-11.45,6-13.25a2,2,0,0,1,1.29-.89A3.59,3.59,0,0,0,76.62.81c-.67,0-1.21.56-2.13,1.67C73.13,4.15,65.21,12.73,62.57,15.78ZM82.18,15a2.25,2.25,0,0,1,1.26,0l-1.35,3.1c-3,3-7.1,6.37-7.49,6.19S75.74,21,77.93,18.5c1.34-1.62,3-3.15,4.22-3.5Zm-13.33.85c-1.44-.11-2.83-.16-4.2-.15,8.42-10.33,8.68-10.62,9-10.91A80.46,80.46,0,0,0,68.85,15.86Z"/><path class="cls-1" d="M40.77,41.45c2.28-.55,9.22-8.37,14.85-15-.55-.26-1.11-.5-1.63-.71-3.13,3.54-6.2,7-7.15,7.87-2.73,2.59-7.4,6.72-7,3.92C39.1,38.34,38.42,42,40.77,41.45Z"/><path class="cls-1" d="M18.12,52.34c0,.56.08,1.11.11,1.67v.44l.05.42.11.84.2,1.66c.06.56.22,1.12.31,1.67l.15.82.07.41v.11l0,.13,0,.18a16.67,16.67,0,0,1,1.87-.13,1,1,0,0,0-.05-.24l-.05-.2v-.18l-.08-.41-.15-.82-.31-1.64c-.07-.56-.14-1.07-.21-1.61l-.1-.78-.05-.4V53.9L20,52.23c-.06-.55-.06-1.08-.07-1.6s0-1.07,0-1.59,0-1.06.05-1.59v-.8l.05-.78.13-1.57.17-1.52.1-.77c0-.26.09-.51.14-.77.09-.51.17-1,.27-1.52s.24-1,.34-1.5a12.76,12.76,0,0,1,.36-1.48A49.94,49.94,0,0,1,47.69,5.11a48.34,48.34,0,0,1,7.59-2.88c1.19-.38,2.39-.62,3.51-.89.55-.12,1.11-.21,1.66-.31S61.53.83,62,.77L63.56.56C64,.49,64.53.47,65,.43,65.92.36,66.8.27,67.61.27s1.57-.05,2.26,0L71.75.3a12.37,12.37,0,0,1,1.48.09l1.07.1.88.07L74.31.45,73.24.32c-.43,0-.93-.11-1.49-.14L69.85.06c-.68,0-1.45,0-2.27,0S65.91.05,65,.09c-.47,0-.94,0-1.45.1L62,.35c-.53,0-1.06.13-1.61.22L58.7.84c-1.11.24-2.34.46-3.56.81A47.61,47.61,0,0,0,47.36,4.4a49.86,49.86,0,0,0-16,11.53,50.93,50.93,0,0,0-6.71,9.14c-.26.42-.48.86-.72,1.3s-.46.87-.69,1.32l-.64,1.37c-.21.45-.43.91-.61,1.38s-.39,1-.56,1.42-.37,1-.55,1.48-.37.94-.49,1.44-.3,1-.45,1.5-.28,1-.4,1.52-.26,1-.37,1.55-.2,1-.31,1.56c0,.27-.1.53-.14.79l-.11.8c-.08.55-.16,1.06-.24,1.6s-.1,1.08-.15,1.63l-.06.82c0,.27,0,.55,0,.81,0,.56,0,1.12-.07,1.67V50.7C18.06,51.24,18.08,51.8,18.12,52.34Z"/><path class="cls-1" d="M65.24,77.89a2.09,2.09,0,0,1,.48-.41.29.29,0,0,1,.13,0s0-.09-.07-.15a.45.45,0,0,0-.37-.2.91.91,0,0,0-.39.64C65,77.87,65.15,78,65.24,77.89Z"/><path class="cls-1" d="M75.43,78.39c.08-.06-.12-.4-.27-.4a8,8,0,0,0-2,1.53,3.61,3.61,0,0,0-.33.35c.23-.35.47-.69.72-1s.42-.5.5-.5.08,0,.08,0a.54.54,0,0,0-.4-.4.12.12,0,0,0-.08,0,4.1,4.1,0,0,0-.64.74,7,7,0,0,0-1.45.6c-.06,0-.21-.15-.19-.26a2.32,2.32,0,0,1,1.35-.87,2.26,2.26,0,0,1-.46.56h0a1.06,1.06,0,0,0,.56-.46c0-.18-.06-.48-.24-.48-.56,0-1.46.48-1.56,1v.12a6.1,6.1,0,0,1-1.52,1.2A2.61,2.61,0,0,1,70,79c.15-.21.31-.41.48-.61a.48.48,0,0,1,.2-.14c.06,0,.08,0,.08,0a.53.53,0,0,0-.39-.41.15.15,0,0,0-.09,0,15.44,15.44,0,0,0-1.15,1.14,5.89,5.89,0,0,1-1.24,1,3.59,3.59,0,0,1,.63-1.15c.21-.28.48-.6.56-.59s.08,0,.08,0a.56.56,0,0,0-.4-.41.12.12,0,0,0-.08,0,3,3,0,0,0-.53.59l-.24,0a.56.56,0,0,1-.52-.33.25.25,0,0,0-.14-.06c-.09,0-.27.2-.29.26a.51.51,0,0,0,.07.3c-.42.65-1.32,1.67-1.67,1.5s1-2.26,2.1-2.26h.16a.6.6,0,0,0-.39-.11,2.86,2.86,0,0,0-2.1,1.25,4.83,4.83,0,0,1-1.25.94c.07-.26.93-1.67,1.19-1.67.05,0,.08,0,.08,0a.54.54,0,0,0-.39-.41.13.13,0,0,0-.1,0,5,5,0,0,0-.74.91,5.75,5.75,0,0,1-2,1.18c-.05,0-.18,0-.18-.11,0-.44,1.23-1.86,1.91-1.87.05.05-.21.55-.31.64s0,0,0,0c.21-.15.52-.39.52-.62a.49.49,0,0,0-.36-.31,2.49,2.49,0,0,0-1.51.76,6.33,6.33,0,0,0-1.5.62c-.06,0-.21-.16-.19-.26a2.32,2.32,0,0,1,1.35-.87,1.88,1.88,0,0,1-.46.55h0a1.1,1.1,0,0,0,.56-.46c0-.18-.07-.47-.24-.47-.56,0-1.46.47-1.56,1a.31.31,0,0,0,0,.19A6.09,6.09,0,0,1,58.57,80a6.94,6.94,0,0,1,1.14-1.75c.08-.06-.12-.4-.27-.4a8.16,8.16,0,0,0-2,1.53,3.49,3.49,0,0,0-.32.35c.22-.35.46-.69.72-1s.41-.5.5-.5.07,0,.07,0a.58.58,0,0,0-.4-.4l-.07,0a3.13,3.13,0,0,0-.56.59.72.72,0,0,1-.29.06.54.54,0,0,1-.52-.31.18.18,0,0,0-.15-.07.67.67,0,0,0-.3.28.64.64,0,0,0,.08.3c-.43.65-1.32,1.67-1.67,1.51s1-2.27,2.1-2.27h.16a.55.55,0,0,0-.39-.1,2.79,2.79,0,0,0-2.22,1.47A8,8,0,0,1,50.32,81c-.48,0-.87-.14-.91-.67-.14-1.75,3.24-5,5.17-5,.39,0,.64.16.64.45,0,.5-1,1.06-1.42,1.06,0,0,.15-.28.14-.28s-.36.27-.36.42.1.41.26.41a2,2,0,0,0,1.61-1.5c0-.48-.38-.72-.93-.72-2.12,0-5.83,3-5.7,5.2,0,.76.62,1.06,1.29,1.07a8.13,8.13,0,0,0,4-1.89,1.33,1.33,0,0,0,0,.34.52.52,0,0,0,.47.5,2.7,2.7,0,0,0,2.14-1.7.6.6,0,0,0,.19,0,1.19,1.19,0,0,0,.37-.06h0a8.58,8.58,0,0,0-.6,1,1.1,1.1,0,0,0-.17.5c0,.18.2.38.39.33-.1,0-.05-.21.12-.41a2,2,0,0,1,.24-.26,7.72,7.72,0,0,1,1.91-1.5,4.36,4.36,0,0,0-1.06,1.71.39.39,0,0,0,.12.24.28.28,0,0,0,.19.12c.33,0,1.16-.79,1.72-1.39a2.5,2.5,0,0,0,.32.33c-.22.09-1.14.61-1.16.89a.25.25,0,0,0,.24.25c.4,0,1.24-.34,1.32-.75a.57.57,0,0,0-.22-.37,8.56,8.56,0,0,1,1.28-.56,2.48,2.48,0,0,0-.62,1,.6.6,0,0,0,0,.19.51.51,0,0,0,.46.39,4.06,4.06,0,0,0,2-1.19,2.42,2.42,0,0,0-.4.88.42.42,0,0,0,.26.3h.07a3.55,3.55,0,0,0,1.29-1,1.45,1.45,0,0,0-.1.51.5.5,0,0,0,.48.49,2.72,2.72,0,0,0,2.14-1.7.61.61,0,0,0,.19,0,1.49,1.49,0,0,0,.36,0,3.46,3.46,0,0,0-.69,1.38.38.38,0,0,0,.29.32h.05a7.55,7.55,0,0,0,1.85-1.63,4.09,4.09,0,0,0-.55,1,.77.77,0,0,0-.07.26.41.41,0,0,0,.23.31.13.13,0,0,0,.1,0c.34,0,1.21-.86,1.78-1.47a1.44,1.44,0,0,0,.35.39c-.22.09-1.14.62-1.16.89a.25.25,0,0,0,.24.25c.4,0,1.23-.34,1.32-.75a.64.64,0,0,0-.22-.37,7,7,0,0,1,1.3-.55,9.59,9.59,0,0,0-.56.85,1,1,0,0,0-.17.5c0,.18.2.38.39.34-.1,0-.05-.21.12-.41l.22-.27a8.34,8.34,0,0,1,1.91-1.49,4.3,4.3,0,0,0-1.05,1.7.41.41,0,0,0,.11.24.35.35,0,0,0,.19.13c.23,0,.68-.37,1.12-.79a1,1,0,0,0-.09.41.51.51,0,0,0,.45.39c.74,0,1.81-1,2.37-1.47a1.56,1.56,0,0,0,.35.39c-.21.09-1.14.62-1.16.89s.1.25.24.25c.41,0,1.24-.34,1.33-.74a.58.58,0,0,0-.22-.37,6.74,6.74,0,0,1,1.2-.53c0,.24.33.43.39.5-.22.09-1.14.62-1.16.89s.1.25.24.25c.4,0,1.23-.34,1.32-.74a.58.58,0,0,0-.22-.37A14.36,14.36,0,0,1,82,78.45a0,0,0,0,0,0,0,5.33,5.33,0,0,0-1.89.7c-.07-.05-.22-.15-.19-.26A2.33,2.33,0,0,1,81.27,78a2,2,0,0,1-.45.55h0a1,1,0,0,0,.55-.46c0-.18-.06-.47-.23-.47a1.86,1.86,0,0,0-1.55.91,6.9,6.9,0,0,0-1.28.56c-.06-.06-.21-.16-.19-.26A2.35,2.35,0,0,1,79.47,78a2.06,2.06,0,0,1-.46.56v0a1.11,1.11,0,0,0,.56-.46c0-.18-.07-.48-.24-.48-.56,0-1.46.48-1.56,1a.28.28,0,0,0,0,.13,6,6,0,0,1-2.08,1.27c-.14,0-.2,0-.19-.12a1.24,1.24,0,0,1,.25-.5c.71,0,1.91-.91,1.91-1.31,0-.17-.29-.32-.39-.32a2.5,2.5,0,0,0-1.34.63,3.83,3.83,0,0,0-.69.76,4.13,4.13,0,0,1-1.11.8A19.54,19.54,0,0,0,75.43,78.39ZM59.5,80.22a5.53,5.53,0,0,1,1-.72C60.52,79.74,59.75,80.14,59.5,80.22Zm10.91,0a6,6,0,0,1,1-.72C71.44,79.74,70.66,80.14,70.41,80.22Zm8.66,0a7.22,7.22,0,0,1,1-.72C80.09,79.74,79.31,80.14,79.07,80.22Zm-1.78,0a5.61,5.61,0,0,1,1-.72C78.32,79.74,77.54,80.14,77.29,80.22Zm.31-2.08A3.17,3.17,0,0,1,76,79.46,3.89,3.89,0,0,1,77.6,78.14Z"/><path class="cls-1" d="M82.6,80.34a.79.79,0,0,0,.87.69c1.28,0,3.14-1.66,3.89-2.39a12.6,12.6,0,0,0-2,3.79h0a20,20,0,0,1,3-4.45,9.87,9.87,0,0,1,1.33-.06h.67a5,5,0,0,0-1.67-.26,1.41,1.41,0,0,1,.56-.4.55.55,0,0,0-.4-.24c-.18,0-.46.27-.8.64a3.32,3.32,0,0,0-1.6.42.35.35,0,0,0,0,.11c0,.1.27.17.32.17l.24-.07v0a4.91,4.91,0,0,1,.66-.17c-.8.78-2.63,2.35-4,2.45-.28,0-.56-.1-.48-.46.14-.74,1.83-2,2.87-2.16,0,0,.16-.24.11-.24s-.2,0-.31,0c-.47,0-1-.17-1-.48,0-.75,2.1-2,3-2,.22,0,.5.08.46.32-.07.47-1.25,1.11-1.5,1.11a.07.07,0,0,1,0,0h0a.77.77,0,0,1,.07-.16c-.07,0-.29.16-.29.3a.35.35,0,0,0,.29.33c.65,0,1.78-.83,1.66-1.51-.06-.4-.45-.46-.73-.46-1.27,0-3.47,1.11-3.44,2.22,0,.45.63.68,1,.69C84.49,78.27,82.57,79.41,82.6,80.34Z"/><path class="cls-1" d="M59.3,84.65a1,1,0,0,0-.39.64c0,.12.14.24.23.13a1.56,1.56,0,0,1,.48-.4.13.13,0,0,1,.12,0,.25.25,0,0,0-.06-.16A.49.49,0,0,0,59.3,84.65Z"/><path class="cls-1" d="M71.15,86a.38.38,0,0,1,.22-.15s.07,0,.07,0a.56.56,0,0,0-.39-.4.17.17,0,0,0-.1,0c-.34.28-.83.82-1.16,1.14a6.15,6.15,0,0,1-1.24,1,3.24,3.24,0,0,1,.63-1.15c.21-.28.47-.59.55-.56s.07,0,.07,0a.54.54,0,0,0-.39-.41.12.12,0,0,0-.08,0,3.62,3.62,0,0,0-.63.72l-.2.29a5.61,5.61,0,0,1-2,1.17c-.06,0-.19,0-.19-.11,0-.44,1.24-1.85,1.92-1.87,0,0-.21.56-.31.64h0c.21-.15.52-.38.52-.62a.47.47,0,0,0-.36-.31,2.68,2.68,0,0,0-1.6.83,4.15,4.15,0,0,0-.27.32A5.54,5.54,0,0,1,65,87.67a.65.65,0,0,1,.06-.21,3.42,3.42,0,0,1,.78-1c0-.07-.18-.42-.31-.35a7.44,7.44,0,0,0-.68.58,9.11,9.11,0,0,1-1.41,1h0a3.49,3.49,0,0,1,1-1.33,2.35,2.35,0,0,1,1.23-.63.25.25,0,0,1,.3.2.09.09,0,0,1,0,.07.48.48,0,0,1-.07.23h0a.49.49,0,0,0,.12-.3c0-.3-.31-.4-.55-.4A3.38,3.38,0,0,0,63,87a3.49,3.49,0,0,1-1,.71,6.67,6.67,0,0,1,1.11-1.77c.08-.06-.13-.4-.26-.4a7.67,7.67,0,0,0-2,1.91A4.68,4.68,0,0,1,61.7,86c.07-.06-.14-.37-.27-.37h0a9.34,9.34,0,0,0-2,1.81,13,13,0,0,1,1-1.37.4.4,0,0,1,.21-.16c.05,0,.08,0,.08,0a.56.56,0,0,0-.4-.4.09.09,0,0,0-.08,0,.92.92,0,0,0-.23.25,6.41,6.41,0,0,0-.45.58,6.9,6.9,0,0,1-1.67,1.32c.08-.26.94-1.67,1.2-1.67,0,0,.08,0,.08,0a.58.58,0,0,0-.39-.41.18.18,0,0,0-.1,0,4.58,4.58,0,0,0-.71.87c-.46.43-1.25,1.17-1.49,1.14a14.13,14.13,0,0,1,1.18-2,11.2,11.2,0,0,1,.68-1,15.23,15.23,0,0,1,3.44-.06h0a14.45,14.45,0,0,0-3.22-.19c.27-.35.64-.86.84-.76s-.13-.3-.48-.28a.47.47,0,0,0-.24.13,6.3,6.3,0,0,0-.82,1c-.7.09-1.39.26-1.37.56a.38.38,0,0,0,.33.32c-.16-.09.21-.39.81-.52a8.13,8.13,0,0,0-.56.84c-.27.43-.48.78-.64,1.07a5.28,5.28,0,0,1-1.31,1,6.66,6.66,0,0,1,1.11-1.75c.09-.07-.11-.41-.26-.41a8.5,8.5,0,0,0-2,1.54c-.11.11-.22.23-.32.35a11.91,11.91,0,0,1,.72-1c.19-.24.42-.51.5-.5s.08,0,.08,0a.53.53,0,0,0-.4-.4h-.08a4.71,4.71,0,0,0-.62.72c-.79.56-2,1.53-2.42,1.84.41-1,3.16-3.85,3.14-4.9a.5.5,0,0,0-.61-.53c-2,0-5.64,2.75-5.63,4.15a.4.4,0,0,0,.39.42.9.9,0,0,0,.56-.21l-.29,0c-.15,0-.24,0-.24-.08,0-1.06,3.71-4.19,5.19-4.21.18,0,.35,0,.35.26,0,.6-4.09,5.08-4.08,6.11,0,.1.38.31.38.21,0-.31,2-2,3.11-2.9a6.19,6.19,0,0,0-.5.82,1.08,1.08,0,0,0-.18.5c.05.18.2.38.39.34-.09,0,0-.22.12-.42a2.85,2.85,0,0,1,.23-.26,8.61,8.61,0,0,1,1.9-1.5,4.3,4.3,0,0,0-1,1.7.41.41,0,0,0,.11.24.33.33,0,0,0,.19.14c.27,0,.84-.5,1.35-1a1.72,1.72,0,0,0-.24.63.14.14,0,0,0,0,.09.69.69,0,0,0,.23.25.18.18,0,0,0,.2,0,6.27,6.27,0,0,0,1.3-1.11,2.55,2.55,0,0,0-.38.82.43.43,0,0,0,.27.3h.07c.33,0,1.07-.73,1.63-1.32-.13.2-.24.39-.34.56a1.08,1.08,0,0,0-.18.5c0,.18.22.37.41.33-.09-.05-.07-.18.11-.38s.11-.14.22-.26a8.45,8.45,0,0,1,1.67-1.49,3.72,3.72,0,0,0-.9,1.53.43.43,0,0,0,.29.32,18.7,18.7,0,0,1,2-1.87,4.25,4.25,0,0,0-1,1.71c0,.11.18.35.32.35a2.47,2.47,0,0,0,1-.69,1.14,1.14,0,0,0-.06.25.74.74,0,0,0,.28.43h.06a7.48,7.48,0,0,0,1.66-1.24,2.41,2.41,0,0,0-.36.67,1,1,0,0,0,0,.24.4.4,0,0,0,.2.29.15.15,0,0,0,.11,0c.26,0,.82-.49,1.33-1a2.17,2.17,0,0,0-.17.42.6.6,0,0,0,0,.19.52.52,0,0,0,.46.39,4.11,4.11,0,0,0,2-1.19,2.25,2.25,0,0,0-.36.86.41.41,0,0,0,.3.33h0a8.13,8.13,0,0,0,1.9-1.67,17.11,17.11,0,0,0-2.07,3.43,3.67,3.67,0,0,0-.27.72c0,.11.08.45.33.43a.09.09,0,0,0,.07,0,7,7,0,0,1,1.8-2.33s0,0,0,0A7,7,0,0,0,68.44,90a31.54,31.54,0,0,1,1.86-3.11C70.63,86.63,70.89,86.3,71.15,86Z"/><path class="cls-1" d="M78.54,82.72c-3,0-5.89.88-5.91,2.26,0,.56.71.72,1.11.72h0s-.75-.2-.75-.61c0-.71,2.26-2.11,5.68-2.11a17,17,0,0,1,3.33.34s.13,0,0,0A10.82,10.82,0,0,0,78.54,82.72Z"/><path class="cls-1" d="M77,85.62c.23,0,.46,0,.69,0a3.9,3.9,0,0,1,.59,0A2.83,2.83,0,0,0,77,85.44h-.44c.18-.23.34-.43.51-.62.56-.59,1-1,1.17-1a.2.2,0,0,1,.17.09.56.56,0,0,0-.51-.48,1.34,1.34,0,0,0-.66.43,12,12,0,0,0-1.44,1.66c-.9.15-2.07.48-2,1,0,.13.24.39.24.28s.64-.6,1.51-.87a7.44,7.44,0,0,0-1.45,3,.25.25,0,0,0,.2.24.92.92,0,0,0,.43-.29.66.66,0,0,1-.33.12.06.06,0,0,1-.05-.06,11.12,11.12,0,0,1,2-3.25C76.58,85.68,76.8,85.64,77,85.62Z"/><path class="cls-1" d="M81.36,85a.39.39,0,0,0,.34.32c-.16-.09.2-.39.8-.51a8.1,8.1,0,0,0-.59.84c-.17.29-.28.46-.4.65a6.58,6.58,0,0,0-1.36.59c-.06,0-.21-.16-.19-.26a2.33,2.33,0,0,1,1.34-.87,2.22,2.22,0,0,1-.45.56h0a1.13,1.13,0,0,0,.55-.46c0-.19-.06-.48-.24-.48-.55,0-1.46.48-1.56,1v.13a6,6,0,0,1-2.08,1.26c-.13,0-.2,0-.18-.11a1,1,0,0,1,.23-.5c.72,0,1.91-.92,1.91-1.31,0-.18-.29-.32-.38-.32a2.49,2.49,0,0,0-1.35.63,3,3,0,0,0-.87,1.11,1.43,1.43,0,0,0-.09.41.51.51,0,0,0,.45.39c.75,0,1.82-1,2.37-1.46a1.85,1.85,0,0,0,.36.38c-.22.09-1.15.62-1.16.89s.1.25.24.25c.4,0,1.24-.34,1.32-.74a.62.62,0,0,0-.22-.38,8,8,0,0,1,1.21-.52,3.79,3.79,0,0,0-.55,1.19.17.17,0,0,0,0,.1A.75.75,0,0,0,81,88a.26.26,0,0,0,.21,0,6.87,6.87,0,0,0,1.29-1.12,2.49,2.49,0,0,0-.37.83.43.43,0,0,0,.26.3h.08c.32,0,1.11-.78,1.66-1.36a3.23,3.23,0,0,0-.32,1.11s.14.24.27.24a10.54,10.54,0,0,0,2.63-2.78c0-.07,0-.07,0,0a22.28,22.28,0,0,1-2.35,2.31,5.07,5.07,0,0,1,.36-.91c.23-.4.42-.72.56-.7h.06a.49.49,0,0,0-.39-.41.12.12,0,0,0-.09,0,3,3,0,0,0-.55.85,6.41,6.41,0,0,1-1.59,1.25c.08-.26.94-1.67,1.19-1.67,0,0,.09,0,.09,0a.56.56,0,0,0-.4-.41.11.11,0,0,0-.09,0,4.27,4.27,0,0,0-.72.87c-.45.43-1.24,1.17-1.48,1.14a13.2,13.2,0,0,1,1.17-2,11.3,11.3,0,0,1,.69-1,14.15,14.15,0,0,1,3.44-.06h0a15.16,15.16,0,0,0-3.23-.19c.27-.35.64-.86.84-.76s-.12-.3-.47-.28a.47.47,0,0,0-.24.13,5.78,5.78,0,0,0-.82,1C82,84.53,81.34,84.71,81.36,85Zm-2,.7a3.24,3.24,0,0,1-1.6,1.3,3.62,3.62,0,0,1,1.6-1.32ZM79,87.77a6,6,0,0,1,1-.71c0,.23-.78.63-1,.7Z"/><path class="cls-1" d="M84.22,84.65a1,1,0,0,0-.39.64c0,.12.14.24.23.13a1.56,1.56,0,0,1,.48-.4.15.15,0,0,1,.13,0,.23.23,0,0,0-.07-.16A.49.49,0,0,0,84.22,84.65Z"/><path class="cls-1" d="M91.14,84.44c.28-.33.69-.92.91-.82s-.14-.3-.48-.28a.47.47,0,0,0-.24.13,3.39,3.39,0,0,0-.52.55,18.42,18.42,0,0,0-1.11,1.59,8.83,8.83,0,0,0-.55,1,6.06,6.06,0,0,1-1.41,1.11.65.65,0,0,1,.06-.21,3.16,3.16,0,0,1,.78-1c0-.07-.18-.42-.31-.36l-.68.56a9.11,9.11,0,0,1-1.41,1,0,0,0,0,1,0,0,3.57,3.57,0,0,1,1-1.33,2.28,2.28,0,0,1,1.22-.63.26.26,0,0,1,.31.18h0v.08a.41.41,0,0,1-.07.22h0a.44.44,0,0,0,.11-.29c0-.29-.31-.39-.55-.39a3.15,3.15,0,0,0-2.6,2.08.72.72,0,0,0,.28.42h.06a7,7,0,0,0,1.66-1.24,2.7,2.7,0,0,0-.36.67,2,2,0,0,0,0,.24.41.41,0,0,0,.21.3l.1,0c.29,0,.94-.6,1.47-1.11a2.25,2.25,0,0,0-.31.75.17.17,0,0,0,0,.1.68.68,0,0,0,.23.25.27.27,0,0,0,.2,0,9.44,9.44,0,0,0,1.77-1.63s0-.07,0,0c-.37.34-1.41,1.36-1.67,1.33a13.59,13.59,0,0,1,1.17-2Z"/></svg>