<svg id="Layer_1" data-name="Layer 1" xmlns="http://www.w3.org/2000/svg" width="150" height="73.27" viewBox="0 0 150 73.27"><defs><style>.cls-1{fill:#fff;}.cls-2{fill:#e2252a;}</style></defs><path class="cls-1" d="M5.55,19.73c.8-2,0-3.1-1.35-4.54A10.49,10.49,0,0,1,1.54,8.37,9.16,9.16,0,0,1,4.22,2.9C6.85.36,10.52-.42,14.34.21c3,.5,2.28,2.67,2.1,3.08-.29.68-2.81,7-3.78,9.53-.28.71-.57,1.42-.83,2.15a2.16,2.16,0,0,0,.92,3c.87.65,1.76,1.27,2.62,1.94a7,7,0,0,1,2.78,5.71A11,11,0,0,1,14,33.76c-2.67,2-8.15,2.69-12.49.91C.27,34.15-.36,33.26.21,32.12L5.55,19.73"/><path class="cls-1" d="M128.43,13.42c0,5.89.22,11.79.31,17.68a8.82,8.82,0,0,1-.16,2,2.15,2.15,0,0,1-2,1.91,29.68,29.68,0,0,1-7.23.37c-3.37,0-6.74-.11-10.1-.27a1.81,1.81,0,0,1-1.49-1,5.57,5.57,0,0,1-.76-2.64c-.58-6.31-.92-26.11-.94-27.75,0-2.31,3.7-4.73,6.89.46,1.4,2.28,2.9,4.5,4.38,6.73,1.18,1.78,2.38,3.56,3.62,5.3a12.37,12.37,0,0,0,1.76,1.93c.79.7,1.59.42,1.71-.63.15-1.38.2-9.77.23-12.57,0-1.44.17-4.29,2.17-4.12a1.31,1.31,0,0,1,1.35,1.24,16.39,16.39,0,0,1,.27,2.61c0,2.91,0,8.73,0,8.73"/><path class="cls-1" d="M41.21,4.6a11.18,11.18,0,0,1,.09-1.92A2.31,2.31,0,0,1,43.56.45C44.48.33,54.13.15,55.88.2s3.24.12,4.86.19a1.74,1.74,0,0,1,1.44.9,4.54,4.54,0,0,1,.75,2.25c.68,8.29.7,28.31.64,30a2.37,2.37,0,0,1-2.66,1.9,3.5,3.5,0,0,1-2.49-1.77c-.43-.79-.87-1.58-1.36-2.33-1.5-2.34-3-4.68-4.55-7-1.14-1.72-2.29-3.43-3.49-5.1a11.31,11.31,0,0,0-1.7-1.89c-.86-.76-1.66-.48-1.78.67-.15,1.43-.13,2.88-.18,4.32,0,3.18,0,6.85-.14,10a7,7,0,0,1-.59,2,1.33,1.33,0,0,1-1.48.75,1.29,1.29,0,0,1-1.29-1,30.9,30.9,0,0,1-.33-6.16V17.73S41.33,9,41.21,4.6"/><path class="cls-1" d="M130.68,18.4c-.06-2.16,0-3.92-.18-5.66-.29-2.8-.38-10.52-.08-11.38S131.82.3,132.78.27s2.16,0,3.24,0c3.88.17,9,3.16,10.85,6.31,2,3.46,3.42,7.11,3.08,11.21a29.57,29.57,0,0,1-.62,4.81c-1.54,7-7.84,11.79-15.42,12.28-1.59.11-2.67-.07-2.89-1.43a18.52,18.52,0,0,1-.12-2.29c-.08-4.06-.36-8.88-.22-12.8"/><path class="cls-1" d="M68.23,35.1a2,2,0,0,1-1.86-1.27,7.24,7.24,0,0,1-.59-2.62c-.14-2.34-.31-4.68-.41-7,.26-7.43.26-14.88.4-22.32,0-2.1,3.22-2.71,3.41-.35.1,6.1-.06,12.2,0,18.3.19,1.52.78,2,2.31,2.13,1.85.12,3.69.27,5.54.46,1.16.16,2.48.77,2.59,2.11.17,3.43,2.29,10.38-3.06,10.56-1.23,0-6.79.07-8.33,0"/><path class="cls-1" d="M39.41,3.87a8.07,8.07,0,0,0-.16-2A1.93,1.93,0,0,0,38.05.83,25.69,25.69,0,0,0,35.22.71s-6.14.06-7.65.13c-1.66.08-1,2.6-1.37,3.12-.9,1.43-2.28.3-2.46-.83A2.16,2.16,0,0,0,21.37,1a2.11,2.11,0,0,0-1.86,2.44c0,1.72,0,3.43-.07,5.15-.06,2.08.07,4.17,0,6.25-.11,2.35,0,5.62,0,8a22.46,22.46,0,0,0,1.14,6.93c1.17,3.59,4.7,5.41,8.31,5.58,3.85.3,10.81-1.83,10.56-11.34-.19-7.06.14-12.8-.06-20.1"/><path class="cls-1" d="M97.76,21.92l-.59.09a.6.6,0,0,0-.51.64l0,.6a.6.6,0,0,1-1,.48l-.45-.41a.6.6,0,0,0-.81,0l-.45.41a.6.6,0,0,1-1-.48l0-.6a.6.6,0,0,0-.51-.64l-.59-.09a.6.6,0,0,1-.25-1.09l.5-.34a.62.62,0,0,0,.18-.8l-.3-.52a.6.6,0,0,1,.69-.87l.58.17a.61.61,0,0,0,.74-.35l.22-.56a.59.59,0,0,1,1.11,0l.23.56a.59.59,0,0,0,.73.35l.58-.17a.6.6,0,0,1,.69.87l-.3.52a.62.62,0,0,0,.18.8l.5.34a.6.6,0,0,1-.25,1.09m7.82,9.93c-.26-1.17-.51-2.34-.73-3.52-.57-3.16-1.12-6.32-1.83-9.46-.67-3-1-6-2-9-.61-1.95-.9-3.13-1.46-5.1s-1.32-2.87-2.1-3C95.52,1.29,95,3,94.43,4.12c-2.37,4.52-4.8,9-6.79,13.7-.87,2.07-2,4-2.87,6.09s-1.81,4-2.71,6c-.72,1.73-1.18,3.51,1,4.36a7.32,7.32,0,0,0,2.63.51v.05c5.58,0,11.17-.18,16.76,0a13,13,0,0,0,2-.25c1.07-.21,1.26-1.86,1.08-2.74"/><path class="cls-1" d="M44.29,39.45H42.6a.55.55,0,0,0-.44.19.61.61,0,0,0-.17.42v3.76a.55.55,0,0,0,.18.43.59.59,0,0,0,.41.16h0a.55.55,0,0,0,.4-.16.54.54,0,0,0,.18-.43V42.46h.94a.51.51,0,0,0,.41-.18.59.59,0,0,0,0-.76.51.51,0,0,0-.41-.18h-.94v-.79h1.13a.51.51,0,0,0,.39-.17.6.6,0,0,0,.14-.39.56.56,0,0,0-.14-.38.52.52,0,0,0-.39-.18"/><path class="cls-1" d="M50.14,43.29H49v-.81h1a.52.52,0,0,0,.41-.17.55.55,0,0,0,.15-.38.6.6,0,0,0-.14-.39.52.52,0,0,0-.42-.18H49v-.78h1.08a.5.5,0,0,0,.4-.17.56.56,0,0,0,.15-.39.54.54,0,0,0-.15-.38.47.47,0,0,0-.4-.17H48.43a.51.51,0,0,0-.32.1.47.47,0,0,0-.21.25.77.77,0,0,0-.07.34v3.66a.57.57,0,0,0,.18.43.65.65,0,0,0,.43.16h1.71a.47.47,0,0,0,.39-.16.61.61,0,0,0,0-.78.49.49,0,0,0-.39-.17"/><path class="cls-1" d="M56.27,41.43l-.8-.28c-.2-.07-.31-.16-.31-.26a.27.27,0,0,1,.13-.24.55.55,0,0,1,.36-.1h0a1.48,1.48,0,0,1,.45.1l.22.07a.59.59,0,0,0,.17,0,.49.49,0,0,0,.38-.16.64.64,0,0,0,.14-.41.56.56,0,0,0-.26-.47,1.88,1.88,0,0,0-.56-.23,2.43,2.43,0,0,0-.55-.07,1.78,1.78,0,0,0-.86.19,1.53,1.53,0,0,0-.64.57,1.61,1.61,0,0,0-.23.85,1.11,1.11,0,0,0,.32.86,2.54,2.54,0,0,0,.95.47l.8.27a.25.25,0,0,1,.12.25.43.43,0,0,1-.14.35.63.63,0,0,1-.44.13,1.81,1.81,0,0,1-.57-.12,2.05,2.05,0,0,0-.54-.12h0a.5.5,0,0,0-.39.16.54.54,0,0,0-.14.39.59.59,0,0,0,.31.53,1.91,1.91,0,0,0,.67.25,6.3,6.3,0,0,0,.71.07h0a2,2,0,0,0,.88-.2,1.6,1.6,0,0,0,.9-1.45,1.29,1.29,0,0,0-.33-1,1.78,1.78,0,0,0-.77-.47"/><path class="cls-1" d="M63.41,39.49H61a.54.54,0,0,0-.4.17.64.64,0,0,0-.14.39.59.59,0,0,0,.14.38.51.51,0,0,0,.4.17h.61v3.26a.6.6,0,0,0,.16.44.58.58,0,0,0,.43.17h0a.57.57,0,0,0,.41-.17.57.57,0,0,0,.18-.44V40.6h.63a.51.51,0,0,0,.4-.17.55.55,0,0,0,.13-.38.58.58,0,0,0-.13-.38.48.48,0,0,0-.39-.18"/><path class="cls-1" d="M68.05,39.54a.57.57,0,0,0-.28-.06.59.59,0,0,0-.41.15.56.56,0,0,0-.18.44v3.8a.55.55,0,0,0,.18.43.59.59,0,0,0,.41.16h0a.57.57,0,0,0,.41-.16.56.56,0,0,0,.17-.43v-3.8a.66.66,0,0,0-.08-.32.63.63,0,0,0-.22-.21"/><path class="cls-1" d="M75.21,39.48h0a.42.42,0,0,0-.31.11,1,1,0,0,0-.23.29l-.92,2.54-1-2.55a.57.57,0,0,0-.53-.4h0a.58.58,0,0,0-.44.19.68.68,0,0,0-.15.42.87.87,0,0,0,0,.26L73.17,44a.58.58,0,0,0,.57.45h0a.49.49,0,0,0,.36-.12.94.94,0,0,0,.21-.33l1.44-3.69a.7.7,0,0,0,0-.25.64.64,0,0,0-.16-.43.53.53,0,0,0-.43-.19"/><path class="cls-1" d="M81.48,42.44h-1L81,40.87Zm.3-2.38a1.11,1.11,0,0,0-.3-.43.72.72,0,0,0-.49-.18h0a.72.72,0,0,0-.48.18,1.16,1.16,0,0,0-.32.43l-1.33,3.63a.54.54,0,0,0-.06.25.46.46,0,0,0,.2.39.61.61,0,0,0,.42.16.64.64,0,0,0,.33-.1.66.66,0,0,0,.21-.31l.17-.56h1.7l.19.56a.54.54,0,0,0,.56.43h0a.49.49,0,0,0,.39-.17.56.56,0,0,0,.14-.38.74.74,0,0,0,0-.25Z"/><path class="cls-1" d="M89,43.54a.5.5,0,0,0-.4-.17H87.55V40.11a.57.57,0,0,0-.08-.32.63.63,0,0,0-.22-.21.64.64,0,0,0-.28-.07h0a.6.6,0,0,0-.41.16.56.56,0,0,0-.18.44v3.73a.65.65,0,0,0,.17.46.59.59,0,0,0,.44.18h1.65a.51.51,0,0,0,.4-.17.56.56,0,0,0,.15-.39.55.55,0,0,0-.15-.38"/><rect class="cls-2" x="41.98" y="49.26" width="63.46" height="24.01"/><path class="cls-1" d="M84.48,54.51h13.9v3.34H93.71V68H89.15V57.85H84.48Zm-5.46,0H83.6V68H79Zm-15.91,0L67.75,61,62.65,68h5.1l2.92-4.35L73.58,68h5.13l-5-7,4.59-6.55h-5l-2.54,4.15-2.62-4.15Zm-12.55,0H62.78V57.4H55.14v2.15h7.08v2.76H55.14V65H63v2.58l-.35.48H50.56Z"/><path class="cls-1" d="M105.35,39.78a.57.57,0,0,0-.23-.23.55.55,0,0,0-.3-.09.48.48,0,0,0-.43.25L103.5,41l-.89-1.31a.56.56,0,0,0-.87-.05.59.59,0,0,0-.19.42.62.62,0,0,0,.11.34l1.24,1.77V44a.52.52,0,0,0,.19.42.61.61,0,0,0,.41.15.63.63,0,0,0,.41-.15.54.54,0,0,0,.18-.42V42.18l1.26-1.78a.58.58,0,0,0,0-.62"/><path class="cls-1" d="M98.75,42.86a.46.46,0,0,1-.14.36.61.61,0,0,1-.39.13h-.71v-.93h.63a.74.74,0,0,1,.46.12.41.41,0,0,1,.15.32m-1.24-1.52v-.82H98a.54.54,0,0,1,.33.1.36.36,0,0,1,.12.29.44.44,0,0,1-.11.32.5.5,0,0,1-.34.11Zm1.93.52a1.14,1.14,0,0,0-.31-.16,1,1,0,0,0,.26-.25,1.28,1.28,0,0,0,.2-.73,1.24,1.24,0,0,0-.18-.67,1.21,1.21,0,0,0-.49-.46,1.38,1.38,0,0,0-.67-.16H97a.73.73,0,0,0-.45.16.59.59,0,0,0-.18.44v3.8a.58.58,0,0,0,.18.45h0a.69.69,0,0,0,.45.16h1.38a1.91,1.91,0,0,0,.86-.18,1.34,1.34,0,0,0,.59-.54,1.62,1.62,0,0,0,.21-.85,1.24,1.24,0,0,0-.55-1"/></svg>