<svg xmlns="http://www.w3.org/2000/svg" width="93" height="72.99" viewBox="0 0 93 72.99"><defs><style>.a{fill:#fff;}</style></defs><title>VISA_logo_res</title><path class="a" d="M36.76,23.65l-10.47,25H19.47L14.32,28.69a2.71,2.71,0,0,0-1.52-2.18,26.67,26.67,0,0,0-6.37-2.13l.14-.73h11a3,3,0,0,1,3,2.55l2.73,14.44,6.72-17ZM63.5,40.46c0-6.58-9.11-7-9-9.9,0-.87.87-1.84,2.75-2.08a12.13,12.13,0,0,1,6.36,1.12l1.14-5.29a17.32,17.32,0,0,0-6-1.11c-6.39,0-10.87,3.39-10.91,8.25,0,3.59,3.2,5.6,5.65,6.79s3.36,2,3.35,3.1c0,1.68-2,2.42-3.87,2.44a13.27,13.27,0,0,1-6.62-1.58l-1.18,5.48A19.82,19.82,0,0,0,52.26,49C59,49,63.5,45.65,63.5,40.46m16.84,8.15h6l-5.24-25H75.59a2.93,2.93,0,0,0-2.74,1.84L63.16,48.61h6.77l1.35-3.73h8.28Zm-7.2-8.85,3.4-9.36,1.95,9.36ZM46,23.65l-5.34,25H34.18l5.34-25Z"/></svg>