<svg id="Layer_1" data-name="Layer 1" xmlns="http://www.w3.org/2000/svg" width="120" height="120" viewBox="0 0 120 120"><defs><style>.cls-1{fill:#171d1d;}.cls-2{fill:#fefefe;}</style></defs><rect class="cls-1" x="15" y="15" width="90" height="90"/><polygon class="cls-2" points="60.78 52.62 64.28 52.62 80.16 52.62 61.98 34.87 60.78 33.85 60.78 28.92 64.28 28.92 87.74 28.92 91.25 28.92 91.25 35.69 87.74 35.69 71.87 35.69 90.05 53.44 91.25 54.46 91.25 59.39 87.74 59.39 64.28 59.39 60.78 59.39 60.78 52.62"/><polygon class="cls-2" points="28.75 55.88 28.75 32.42 28.75 28.92 33.68 28.92 34.7 30.12 52.45 48.3 52.45 32.42 52.45 28.92 59.22 28.92 59.22 32.42 59.22 55.88 59.22 59.39 54.29 59.39 53.27 58.19 35.52 40.01 35.52 55.88 35.52 59.39 28.75 59.39 28.75 55.88"/><polygon class="cls-2" points="59.25 67.35 59.25 60.61 35.52 60.61 28.75 60.61 28.75 91.08 35.52 91.08 35.52 79.21 52.45 79.21 52.45 72.47 35.52 72.47 35.52 67.35 59.25 67.35"/><path class="cls-2" d="M83.28,71.75a2.42,2.42,0,0,1-4.48,0,9.79,9.79,0,0,1-.16-2.32,9.79,9.79,0,0,1,.16-2.32,2.42,2.42,0,0,1,4.48,0,9.79,9.79,0,0,1,.16,2.32,9.79,9.79,0,0,1-.16,2.32M81,66.89a.69.69,0,0,0-.75.5,11.43,11.43,0,0,0-.09,2,11.43,11.43,0,0,0,.09,2A.7.7,0,0,0,81,72a.71.71,0,0,0,.75-.51,11.43,11.43,0,0,0,.09-2,11.43,11.43,0,0,0-.09-2A.7.7,0,0,0,81,66.89Zm-7.93,5a.1.1,0,0,1,.11.11V73c0,.07,0,.1-.11.1H68.7c-.08,0-.11,0-.11-.1V72a.25.25,0,0,1,0-.15l2.61-3.11a1.5,1.5,0,0,0,.44-1,.78.78,0,0,0-.81-.85c-.51,0-.81.29-.87.87,0,.08-.05.1-.12.09l-1.2-.2c-.08,0-.1-.05-.09-.13a2,2,0,0,1,.69-1.37,2.37,2.37,0,0,1,1.65-.55,2.28,2.28,0,0,1,1.66.6,2,2,0,0,1,.62,1.52,2.7,2.7,0,0,1-.76,1.8l-1.95,2.3v0Zm0,13c.08,0,.11,0,.11.11V86a.1.1,0,0,1-.11.11H68.7a.1.1,0,0,1-.11-.11V85a.27.27,0,0,1,0-.15l2.61-3.1a1.54,1.54,0,0,0,.44-1,.78.78,0,0,0-.81-.85c-.51,0-.81.29-.87.87,0,.08-.05.1-.12.09l-1.2-.2c-.08,0-.1,0-.09-.13a2,2,0,0,1,.69-1.36,2.65,2.65,0,0,1,3.31,0,2,2,0,0,1,.62,1.52,2.7,2.7,0,0,1-.76,1.8l-1.95,2.3v0Zm10-.07a.1.1,0,0,1,.11.11v1.08a.1.1,0,0,1-.11.11H78.71c-.08,0-.11,0-.11-.11v-1a.3.3,0,0,1,.05-.16l2.61-3.1a1.54,1.54,0,0,0,.44-1,.78.78,0,0,0-.81-.85c-.51,0-.81.3-.87.88,0,.07,0,.09-.12.08l-1.21-.19c-.07,0-.09-.06-.08-.13A2,2,0,0,1,79.29,79a2.41,2.41,0,0,1,1.65-.56,2.29,2.29,0,0,1,1.66.6,2,2,0,0,1,.63,1.52,2.71,2.71,0,0,1-.76,1.81l-2,2.3v0ZM60.78,91.08H91.25V60.61H60.78Z"/></svg>