<?xml version="1.0" encoding="utf-8"?>
<!-- Generator: Adobe Illustrator 16.0.0, SVG Export Plug-In . SVG Version: 6.00 Build 0)  -->
<!DOCTYPE svg PUBLIC "-//W3C//DTD SVG 1.1//EN" "http://www.w3.org/Graphics/SVG/1.1/DTD/svg11.dtd">
<svg version="1.1" id="Layer_1" xmlns="http://www.w3.org/2000/svg" xmlns:xlink="http://www.w3.org/1999/xlink" x="0px" y="0px"
	 width="154px" height="154px" viewBox="0 0 154 154" enable-background="new 0 0 154 154" xml:space="preserve">
<g>
	<polygon fill="#FFFFFF" points="122.03,127.98 36.19,127.98 18.96,110.38 18.96,40.09 134.85,40.09 134.85,115.58 	"/>
	<path fill="#1E5A72" d="M77.13,2C35.63,2,2,35.65,2,77.14c0,41.49,33.63,75.13,75.13,75.13c41.49,0,75.14-33.64,75.14-75.13
		C152.27,35.65,118.62,2,77.13,2 M97.2,46.29c0-0.92,0.75-1.67,1.67-1.67h30.6c0.92,0,1.67,0.75,1.67,1.67l-0.05,37.94l-10.09-1.27
		V68.81c0-0.75-0.6-1.36-1.35-1.36h-10.97c-0.75,0-1.35,0.6-1.35,1.36v12.44L97.2,79.97V46.29z M60.16,46.29
		c0-0.92,0.75-1.67,1.67-1.67h30.61c0.91,0,1.66,0.75,1.66,1.67v6.99H75.96c-0.76,0-1.36,0.61-1.36,1.36v3.43
		c0,0.75,0.61,1.36,1.36,1.36H94.1v8.02H75.96c-0.76,0-1.36,0.6-1.36,1.36v3.43c0,0.75,0.61,1.35,1.36,1.35H94.1v6.45
		c0,0-29.36,3.44-32.6,3.79c-1.13,0.13-1.34-1.15-1.34-1.34V46.29z M23.12,73.49h18.76c0.75,0,1.35-0.61,1.35-1.36v-3.43
		c0-0.75-0.61-1.36-1.35-1.36H23.12V46.29c0-0.92,0.75-1.67,1.67-1.67h30.59c0.92,0,1.67,0.75,1.67,1.67v6.99H38.01
		c-0.75,0-1.36,0.61-1.36,1.36v3.43c0,0.75,0.61,1.36,1.36,1.36h19.06v23.17c0,1.08-1.34,1.08-1.34,1.08l-32.6-4.75V73.49z
		 M24.14,106.71c-0.56,0-1.01-0.47-1.01-1.04V83.05l20.07,2.93v19.69c0,0.57-0.45,1.04-1.01,1.04H24.14z M46.69,116.1
		c-0.1,0.1-0.22,0.14-0.36,0.14h-2.63v3.33h2.32c0.14,0,0.27,0.05,0.35,0.14c0.1,0.1,0.14,0.21,0.14,0.36
		c0,0.15-0.05,0.26-0.14,0.35c-0.09,0.1-0.21,0.14-0.35,0.14h-2.32v4.14c0,0.14-0.05,0.26-0.15,0.36c-0.09,0.1-0.21,0.14-0.36,0.14
		c-0.13,0-0.26-0.05-0.35-0.14c-0.1-0.1-0.15-0.22-0.15-0.36v-8.97c0-0.14,0.05-0.27,0.15-0.36c0.1-0.09,0.22-0.14,0.35-0.14h3.13
		c0.14,0,0.26,0.05,0.36,0.14c0.09,0.1,0.15,0.22,0.15,0.36C46.83,115.88,46.78,116.01,46.69,116.1 M55.43,119.58
		c0.14,0,0.26,0.05,0.35,0.14c0.1,0.1,0.14,0.21,0.14,0.36c0,0.15-0.04,0.26-0.14,0.35c-0.09,0.1-0.21,0.14-0.35,0.14h-2.32v3.65
		h2.63c0.15,0,0.26,0.04,0.36,0.14c0.1,0.09,0.14,0.22,0.14,0.36s-0.05,0.26-0.14,0.36c-0.1,0.1-0.22,0.14-0.36,0.14H52.6
		c-0.15,0-0.27-0.05-0.36-0.14c-0.09-0.1-0.14-0.22-0.14-0.36v-8.97c0-0.14,0.05-0.27,0.14-0.36c0.09-0.09,0.21-0.14,0.36-0.14h3.13
		c0.15,0,0.26,0.05,0.36,0.14c0.1,0.1,0.14,0.22,0.14,0.36c0,0.14-0.05,0.26-0.14,0.35c-0.1,0.1-0.22,0.14-0.36,0.14h-2.63v3.33
		H55.43z M58.38,99.68h-6.42c-0.44,0-0.8,0.36-0.8,0.8v6.23h-5.93V87.3c0-0.43,0.27-0.79,0.66-0.92l12.83,1.88l6.4-0.75l-0.03,19.21
		h-5.9v-6.23C59.18,100.05,58.82,99.68,58.38,99.68 M65.92,123.01c-0.03,0.35-0.13,0.69-0.3,1c-0.18,0.31-0.4,0.57-0.68,0.77
		c-0.28,0.22-0.59,0.35-0.94,0.45c-0.34,0.08-0.69,0.08-1.04,0.01c-0.34-0.07-0.66-0.21-0.95-0.41c-0.29-0.2-0.52-0.45-0.69-0.76
		c-0.07-0.12-0.08-0.25-0.04-0.38c0.03-0.13,0.12-0.24,0.23-0.31c0.11-0.06,0.23-0.08,0.37-0.06c0.14,0.04,0.24,0.13,0.32,0.25
		c0.22,0.38,0.54,0.61,0.97,0.69c0.44,0.09,0.83-0.01,1.17-0.26c0.35-0.26,0.54-0.62,0.57-1.06c0.02-0.21,0-0.41-0.08-0.61
		c-0.07-0.2-0.18-0.37-0.33-0.52L62,119.23c-0.24-0.24-0.42-0.52-0.54-0.85c-0.11-0.32-0.15-0.65-0.12-0.99
		c0.02-0.34,0.11-0.66,0.28-0.96c0.17-0.29,0.39-0.55,0.66-0.76c0.27-0.2,0.57-0.35,0.91-0.43c0.33-0.08,0.67-0.08,1.01,0
		c0.69,0.15,1.22,0.53,1.59,1.14c0.07,0.12,0.1,0.24,0.06,0.37c-0.04,0.14-0.12,0.24-0.25,0.32c-0.12,0.08-0.24,0.09-0.38,0.04
		c-0.13-0.04-0.23-0.12-0.3-0.23c-0.2-0.36-0.5-0.58-0.92-0.66c-0.42-0.09-0.79,0-1.11,0.25c-0.33,0.23-0.5,0.56-0.53,0.99
		c-0.03,0.41,0.09,0.75,0.38,1.06l2.51,2.58c0.23,0.25,0.42,0.54,0.54,0.87C65.89,122.31,65.94,122.66,65.92,123.01 M75.72,116.1
		c-0.1,0.1-0.22,0.14-0.36,0.14h-1.55v8.53c0,0.15-0.04,0.27-0.14,0.37c-0.09,0.08-0.21,0.14-0.35,0.14c-0.14,0-0.26-0.06-0.36-0.14
		c-0.1-0.1-0.15-0.22-0.15-0.37l0.02-8.53h-1.55c-0.13,0-0.26-0.04-0.35-0.14c-0.1-0.09-0.15-0.22-0.15-0.35
		c0-0.14,0.05-0.27,0.15-0.36c0.1-0.09,0.21-0.14,0.35-0.14h4.09c0.14,0,0.26,0.05,0.36,0.14c0.09,0.1,0.15,0.22,0.15,0.36
		C75.87,115.88,75.81,116.01,75.72,116.1 M82.12,124.78c0,0.15-0.05,0.27-0.14,0.37c-0.1,0.08-0.22,0.14-0.37,0.14
		c-0.13,0-0.25-0.06-0.35-0.14c-0.1-0.1-0.15-0.22-0.15-0.37v-9.09c0-0.15,0.05-0.27,0.15-0.36c0.1-0.09,0.22-0.14,0.35-0.14
		c0.15,0,0.27,0.04,0.37,0.14c0.09,0.09,0.14,0.21,0.14,0.36V124.78z M86.59,106.71H84.4l-9.75-6.59c-0.26-0.2-0.62-0.22-0.92-0.07
		c-0.3,0.15-0.49,0.45-0.49,0.79v5.87l-4.89,0c-0.57,0-1.02-0.47-1.02-1.04V87.26c1.1-0.15,1.6-0.15,2.76-0.33l10.21,7.2
		c0.15,0.12,0.33,0.17,0.52,0.17c0.14,0,0.28-0.03,0.4-0.09c0.29-0.15,0.48-0.46,0.48-0.79v-7.83l5.88-0.69v20.78
		C87.6,106.24,87.14,106.71,86.59,106.71 M93.46,115.83l-2.51,9.09c-0.02,0.1-0.08,0.19-0.17,0.25c-0.09,0.07-0.19,0.11-0.3,0.11
		c-0.12,0-0.22-0.04-0.31-0.11c-0.09-0.07-0.15-0.15-0.18-0.25l-2.51-9.09c-0.04-0.14-0.03-0.27,0.04-0.39
		c0.07-0.12,0.17-0.21,0.3-0.25c0.13-0.03,0.26-0.01,0.39,0.05c0.12,0.08,0.2,0.18,0.22,0.32c0.14,0.49,0.28,0.95,0.41,1.42
		c0.13,0.47,0.26,0.93,0.39,1.39c0.1,0.39,0.21,0.79,0.32,1.2c0.11,0.41,0.23,0.81,0.33,1.21c0.11,0.4,0.22,0.78,0.32,1.15
		c0.11,0.36,0.2,0.69,0.29,0.98c0.07-0.29,0.16-0.62,0.26-0.98c0.1-0.37,0.2-0.75,0.31-1.15c0.12-0.4,0.22-0.8,0.34-1.21
		c0.11-0.41,0.22-0.81,0.33-1.2c0.13-0.46,0.25-0.92,0.38-1.39c0.13-0.46,0.26-0.93,0.39-1.42c0.04-0.14,0.11-0.24,0.24-0.32
		c0.12-0.06,0.24-0.08,0.39-0.05c0.13,0.04,0.23,0.13,0.3,0.25C93.49,115.56,93.51,115.69,93.46,115.83 M103.47,125.03
		c-0.07,0.12-0.17,0.19-0.32,0.24c-0.14,0.04-0.27,0.03-0.38-0.05c-0.11-0.06-0.2-0.17-0.23-0.3c-0.06-0.16-0.11-0.33-0.15-0.53
		c-0.06-0.17-0.11-0.35-0.17-0.57c-0.05-0.22-0.12-0.47-0.19-0.74h-3.04c-0.09,0.27-0.16,0.52-0.21,0.74
		c-0.05,0.22-0.1,0.4-0.15,0.57c-0.05,0.19-0.1,0.37-0.14,0.53c-0.05,0.14-0.13,0.24-0.24,0.3c-0.11,0.07-0.25,0.08-0.38,0.05
		c-0.15-0.05-0.25-0.12-0.31-0.24c-0.07-0.12-0.09-0.24-0.04-0.38l2.5-9.1c0.07-0.25,0.23-0.37,0.49-0.37
		c0.26,0,0.43,0.12,0.49,0.37l2.5,9.1C103.55,124.8,103.53,124.91,103.47,125.03 M107.79,106.71H90.88c-0.56,0-1.02-0.47-1.02-1.04
		V84.64l6.07-0.71l12.88,1.61v4.47H98.47c-0.45,0-0.82,0.38-0.82,0.83v8.96c0,0.47,0.37,0.83,0.82,0.83h10.34v5.06
		C108.81,106.24,108.36,106.71,107.79,106.71 M112.72,125.08c-0.1,0.1-0.21,0.14-0.35,0.14h-3.14c-0.14,0-0.27-0.05-0.35-0.14
		c-0.1-0.1-0.14-0.22-0.14-0.36v-9.03c0-0.15,0.04-0.27,0.14-0.36c0.09-0.09,0.21-0.14,0.35-0.14c0.15,0,0.26,0.04,0.36,0.14
		c0.1,0.09,0.15,0.21,0.15,0.36v8.54h2.63c0.13,0,0.25,0.04,0.35,0.14c0.1,0.09,0.15,0.22,0.15,0.36S112.82,124.98,112.72,125.08
		 M121.29,95.03h9.86v3.76h-9.86c-0.4,0-0.73,0.33-0.73,0.73v2.25c0,0.41,0.33,0.73,0.73,0.73h9.86v3.17c0,0.57-0.46,1.04-1.02,1.04
		H112.1c-0.56,0-1.02-0.47-1.02-1.04V85.83l20.07,2.51v2.98h-9.86c-0.4,0-0.73,0.33-0.73,0.72v2.26
		C120.57,94.7,120.89,95.03,121.29,95.03"/>
	<path fill="#1E5A72" d="M101.08,119.67c-0.1-0.4-0.21-0.77-0.31-1.13c-0.1-0.37-0.19-0.7-0.26-0.96c-0.09,0.27-0.18,0.6-0.28,0.96
		c-0.1,0.36-0.2,0.73-0.3,1.13c-0.12,0.39-0.23,0.8-0.34,1.21c-0.1,0.42-0.21,0.82-0.32,1.21h2.47c-0.1-0.39-0.22-0.79-0.32-1.21
		C101.3,120.47,101.19,120.06,101.08,119.67"/>
	<path fill="#1E5A72" d="M37.37,94.72l-6.18-3.42c-0.31-0.18-0.69-0.17-0.99,0.01c-0.31,0.18-0.49,0.5-0.49,0.87v6.83
		c0,0.36,0.18,0.68,0.49,0.87c0.16,0.09,0.34,0.14,0.51,0.14c0.17,0,0.34-0.04,0.48-0.13l6.18-3.42c0.32-0.17,0.53-0.51,0.53-0.87
		C37.9,95.23,37.69,94.89,37.37,94.72"/>
	<path fill="#1E5A72" d="M108.69,59.4h10.97c0.75,0,1.35-0.6,1.35-1.36V55.9v-0.7v-0.6c0-0.74-0.6-1.36-1.35-1.36h-10.97
		c-0.75,0-1.35,0.61-1.35,1.36v0.6v0.7v2.14C107.33,58.79,107.94,59.4,108.69,59.4"/>
	<path fill="#1E5A72" d="M59.18,92.93v-0.4v-0.36c0-0.44-0.36-0.79-0.8-0.79h-6.42c-0.44,0-0.8,0.35-0.8,0.79v0.36v0.4v1.26
		c0,0.43,0.36,0.79,0.8,0.79h6.42c0.44,0,0.8-0.36,0.8-0.79V92.93z"/>
</g>
</svg>
